<?xml version="1.0" encoding="UTF-8"?>
<svg xmlns="http://www.w3.org/2000/svg" xmlns:xlink="http://www.w3.org/1999/xlink" width="216" height="216" viewBox="0 0 216 216">
<defs>
<g>
<g id="glyph-0-0">
<path d="M 0.28125 0 L 0.28125 -6.3125 L 5.296875 -6.3125 L 5.296875 0 Z M 4.5 -0.796875 L 4.5 -5.515625 L 1.078125 -5.515625 L 1.078125 -0.796875 Z M 4.5 -0.796875 "/>
</g>
<g id="glyph-0-1">
<path d="M 0.859375 -6.3125 L 1.734375 -6.3125 L 1.734375 0 L 0.859375 0 Z M 0.859375 -6.3125 "/>
</g>
<g id="glyph-0-2">
<path d="M 1.03125 -1.4375 C 1.050781 -1.1875 1.113281 -0.988281 1.21875 -0.84375 C 1.414062 -0.601562 1.753906 -0.484375 2.234375 -0.484375 C 2.515625 -0.484375 2.765625 -0.539062 2.984375 -0.65625 C 3.203125 -0.78125 3.3125 -0.972656 3.3125 -1.234375 C 3.3125 -1.429688 3.222656 -1.582031 3.046875 -1.6875 C 2.941406 -1.75 2.722656 -1.820312 2.390625 -1.90625 L 1.78125 -2.0625 C 1.382812 -2.164062 1.09375 -2.273438 0.90625 -2.390625 C 0.570312 -2.597656 0.40625 -2.890625 0.40625 -3.265625 C 0.40625 -3.691406 0.5625 -4.039062 0.875 -4.3125 C 1.195312 -4.582031 1.617188 -4.71875 2.140625 -4.71875 C 2.835938 -4.71875 3.335938 -4.515625 3.640625 -4.109375 C 3.835938 -3.847656 3.929688 -3.570312 3.921875 -3.28125 L 3.203125 -3.28125 C 3.179688 -3.457031 3.117188 -3.613281 3.015625 -3.75 C 2.835938 -3.957031 2.53125 -4.0625 2.09375 -4.0625 C 1.800781 -4.0625 1.578125 -4.003906 1.421875 -3.890625 C 1.273438 -3.773438 1.203125 -3.628906 1.203125 -3.453125 C 1.203125 -3.253906 1.300781 -3.09375 1.5 -2.96875 C 1.613281 -2.894531 1.78125 -2.832031 2 -2.78125 L 2.515625 -2.65625 C 3.066406 -2.519531 3.4375 -2.390625 3.625 -2.265625 C 3.925781 -2.066406 4.078125 -1.753906 4.078125 -1.328125 C 4.078125 -0.921875 3.921875 -0.566406 3.609375 -0.265625 C 3.304688 0.0234375 2.832031 0.171875 2.1875 0.171875 C 1.507812 0.171875 1.023438 0.0195312 0.734375 -0.28125 C 0.453125 -0.59375 0.300781 -0.976562 0.28125 -1.4375 Z M 2.171875 -4.71875 Z M 2.171875 -4.71875 "/>
</g>
<g id="glyph-0-3">
<path d="M 0.59375 -6.3125 L 1.359375 -6.3125 L 1.359375 0 L 0.59375 0 Z M 0.59375 -6.3125 "/>
</g>
<g id="glyph-0-4">
<path d="M 1.15625 -1.21875 C 1.15625 -1 1.238281 -0.820312 1.40625 -0.6875 C 1.570312 -0.5625 1.765625 -0.5 1.984375 -0.5 C 2.253906 -0.5 2.519531 -0.5625 2.78125 -0.6875 C 3.207031 -0.894531 3.421875 -1.238281 3.421875 -1.71875 L 3.421875 -2.34375 C 3.328125 -2.28125 3.203125 -2.226562 3.046875 -2.1875 C 2.898438 -2.144531 2.753906 -2.117188 2.609375 -2.109375 L 2.140625 -2.046875 C 1.867188 -2.003906 1.660156 -1.945312 1.515625 -1.875 C 1.273438 -1.738281 1.15625 -1.519531 1.15625 -1.21875 Z M 3.03125 -2.78125 C 3.207031 -2.8125 3.328125 -2.890625 3.390625 -3.015625 C 3.421875 -3.078125 3.4375 -3.175781 3.4375 -3.3125 C 3.4375 -3.570312 3.34375 -3.757812 3.15625 -3.875 C 2.96875 -4 2.703125 -4.0625 2.359375 -4.0625 C 1.953125 -4.0625 1.664062 -3.953125 1.5 -3.734375 C 1.40625 -3.609375 1.34375 -3.429688 1.3125 -3.203125 L 0.59375 -3.203125 C 0.601562 -3.765625 0.785156 -4.15625 1.140625 -4.375 C 1.492188 -4.601562 1.90625 -4.71875 2.375 -4.71875 C 2.914062 -4.71875 3.351562 -4.613281 3.6875 -4.40625 C 4.019531 -4.195312 4.1875 -3.875 4.1875 -3.4375 L 4.1875 -0.796875 C 4.1875 -0.710938 4.203125 -0.644531 4.234375 -0.59375 C 4.273438 -0.550781 4.347656 -0.53125 4.453125 -0.53125 C 4.484375 -0.53125 4.519531 -0.53125 4.5625 -0.53125 C 4.601562 -0.53125 4.648438 -0.535156 4.703125 -0.546875 L 4.703125 0.015625 C 4.578125 0.0546875 4.484375 0.078125 4.421875 0.078125 C 4.359375 0.0859375 4.273438 0.09375 4.171875 0.09375 C 3.898438 0.09375 3.707031 0 3.59375 -0.1875 C 3.53125 -0.28125 3.484375 -0.421875 3.453125 -0.609375 C 3.296875 -0.398438 3.070312 -0.21875 2.78125 -0.0625 C 2.488281 0.0820312 2.160156 0.15625 1.796875 0.15625 C 1.367188 0.15625 1.019531 0.0234375 0.75 -0.234375 C 0.488281 -0.492188 0.359375 -0.816406 0.359375 -1.203125 C 0.359375 -1.628906 0.488281 -1.957031 0.75 -2.1875 C 1.019531 -2.425781 1.367188 -2.578125 1.796875 -2.640625 Z M 2.390625 -4.71875 Z M 2.390625 -4.71875 "/>
</g>
<g id="glyph-0-5">
<path d="M 0.5625 -4.59375 L 1.296875 -4.59375 L 1.296875 -3.953125 C 1.515625 -4.210938 1.742188 -4.398438 1.984375 -4.515625 C 2.234375 -4.640625 2.507812 -4.703125 2.8125 -4.703125 C 3.457031 -4.703125 3.894531 -4.472656 4.125 -4.015625 C 4.25 -3.765625 4.3125 -3.410156 4.3125 -2.953125 L 4.3125 0 L 3.53125 0 L 3.53125 -2.90625 C 3.53125 -3.175781 3.488281 -3.398438 3.40625 -3.578125 C 3.269531 -3.859375 3.019531 -4 2.65625 -4 C 2.476562 -4 2.328125 -3.984375 2.203125 -3.953125 C 1.992188 -3.890625 1.8125 -3.765625 1.65625 -3.578125 C 1.519531 -3.421875 1.429688 -3.257812 1.390625 -3.09375 C 1.359375 -2.9375 1.34375 -2.707031 1.34375 -2.40625 L 1.34375 0 L 0.5625 0 Z M 2.390625 -4.71875 Z M 2.390625 -4.71875 "/>
</g>
<g id="glyph-0-6">
<path d="M 1.0625 -2.25 C 1.0625 -1.75 1.164062 -1.332031 1.375 -1 C 1.582031 -0.675781 1.914062 -0.515625 2.375 -0.515625 C 2.726562 -0.515625 3.019531 -0.664062 3.25 -0.96875 C 3.488281 -1.28125 3.609375 -1.722656 3.609375 -2.296875 C 3.609375 -2.878906 3.488281 -3.304688 3.25 -3.578125 C 3.007812 -3.859375 2.710938 -4 2.359375 -4 C 1.972656 -4 1.660156 -3.847656 1.421875 -3.546875 C 1.179688 -3.253906 1.0625 -2.820312 1.0625 -2.25 Z M 2.21875 -4.6875 C 2.570312 -4.6875 2.867188 -4.609375 3.109375 -4.453125 C 3.242188 -4.367188 3.398438 -4.21875 3.578125 -4 L 3.578125 -6.328125 L 4.3125 -6.328125 L 4.3125 0 L 3.625 0 L 3.625 -0.640625 C 3.4375 -0.359375 3.21875 -0.15625 2.96875 -0.03125 C 2.726562 0.09375 2.453125 0.15625 2.140625 0.15625 C 1.617188 0.15625 1.171875 -0.0546875 0.796875 -0.484375 C 0.421875 -0.910156 0.234375 -1.484375 0.234375 -2.203125 C 0.234375 -2.867188 0.40625 -3.445312 0.75 -3.9375 C 1.09375 -4.4375 1.582031 -4.6875 2.21875 -4.6875 Z M 2.21875 -4.6875 "/>
</g>
<g id="glyph-0-7">
</g>
<g id="glyph-0-8">
<path d="M 0.671875 -6.3125 L 1.53125 -6.3125 L 1.53125 -0.75 L 4.71875 -0.75 L 4.71875 0 L 0.671875 0 Z M 0.671875 -6.3125 "/>
</g>
<g id="glyph-0-9">
<path d="M 0.546875 -6.3125 L 1.296875 -6.3125 L 1.296875 -2.640625 L 3.28125 -4.59375 L 4.265625 -4.59375 L 2.5 -2.875 L 4.359375 0 L 3.375 0 L 1.9375 -2.3125 L 1.296875 -1.734375 L 1.296875 0 L 0.546875 0 Z M 0.546875 -6.3125 "/>
</g>
<g id="glyph-0-10">
<path d="M 2.484375 -4.703125 C 2.804688 -4.703125 3.117188 -4.625 3.421875 -4.46875 C 3.734375 -4.320312 3.96875 -4.125 4.125 -3.875 C 4.28125 -3.644531 4.382812 -3.375 4.4375 -3.0625 C 4.488281 -2.851562 4.515625 -2.515625 4.515625 -2.046875 L 1.140625 -2.046875 C 1.148438 -1.585938 1.257812 -1.210938 1.46875 -0.921875 C 1.675781 -0.640625 1.992188 -0.5 2.421875 -0.5 C 2.828125 -0.5 3.148438 -0.632812 3.390625 -0.90625 C 3.523438 -1.0625 3.625 -1.238281 3.6875 -1.4375 L 4.453125 -1.4375 C 4.429688 -1.269531 4.363281 -1.082031 4.25 -0.875 C 4.132812 -0.664062 4.003906 -0.5 3.859375 -0.375 C 3.628906 -0.144531 3.34375 0.0078125 3 0.09375 C 2.8125 0.132812 2.597656 0.15625 2.359375 0.15625 C 1.785156 0.15625 1.300781 -0.0507812 0.90625 -0.46875 C 0.507812 -0.882812 0.3125 -1.46875 0.3125 -2.21875 C 0.3125 -2.945312 0.507812 -3.539062 0.90625 -4 C 1.3125 -4.46875 1.835938 -4.703125 2.484375 -4.703125 Z M 3.71875 -2.671875 C 3.6875 -3.003906 3.613281 -3.269531 3.5 -3.46875 C 3.28125 -3.84375 2.925781 -4.03125 2.4375 -4.03125 C 2.082031 -4.03125 1.785156 -3.898438 1.546875 -3.640625 C 1.304688 -3.390625 1.175781 -3.066406 1.15625 -2.671875 Z M 2.40625 -4.71875 Z M 2.40625 -4.71875 "/>
</g>
<g id="glyph-0-11">
<path d="M 0.671875 -6.3125 L 1.671875 -6.3125 L 4.859375 -1.203125 L 4.859375 -6.3125 L 5.671875 -6.3125 L 5.671875 0 L 4.71875 0 L 1.484375 -5.109375 L 1.484375 0 L 0.671875 0 Z M 3.125 -6.3125 Z M 3.125 -6.3125 "/>
</g>
<g id="glyph-0-12">
<path d="M 0.75 -6.3125 L 5.359375 -6.3125 L 5.359375 -5.53125 L 1.578125 -5.53125 L 1.578125 -3.625 L 5.0625 -3.625 L 5.0625 -2.890625 L 1.578125 -2.890625 L 1.578125 -0.75 L 5.421875 -0.75 L 5.421875 0 L 0.75 0 Z M 3.078125 -6.3125 Z M 3.078125 -6.3125 "/>
</g>
<g id="glyph-0-13">
<path d="M 0.84375 -4.359375 L 0.84375 -4.953125 C 1.394531 -5.003906 1.78125 -5.09375 2 -5.21875 C 2.226562 -5.34375 2.394531 -5.644531 2.5 -6.125 L 3.109375 -6.125 L 3.109375 0 L 2.296875 0 L 2.296875 -4.359375 Z M 0.84375 -4.359375 "/>
</g>
<g id="glyph-0-14">
<path d="M 0.28125 0 C 0.300781 -0.53125 0.40625 -0.988281 0.59375 -1.375 C 0.789062 -1.769531 1.164062 -2.128906 1.71875 -2.453125 L 2.546875 -2.921875 C 2.910156 -3.140625 3.164062 -3.328125 3.3125 -3.484375 C 3.550781 -3.710938 3.671875 -3.984375 3.671875 -4.296875 C 3.671875 -4.648438 3.5625 -4.929688 3.34375 -5.140625 C 3.132812 -5.359375 2.847656 -5.46875 2.484375 -5.46875 C 1.960938 -5.46875 1.597656 -5.265625 1.390625 -4.859375 C 1.285156 -4.648438 1.226562 -4.351562 1.21875 -3.96875 L 0.421875 -3.96875 C 0.429688 -4.5 0.53125 -4.9375 0.71875 -5.28125 C 1.050781 -5.875 1.644531 -6.171875 2.5 -6.171875 C 3.195312 -6.171875 3.707031 -5.976562 4.03125 -5.59375 C 4.363281 -5.21875 4.53125 -4.796875 4.53125 -4.328125 C 4.53125 -3.835938 4.351562 -3.414062 4 -3.0625 C 3.800781 -2.863281 3.441406 -2.617188 2.921875 -2.328125 L 2.34375 -2 C 2.0625 -1.84375 1.835938 -1.695312 1.671875 -1.5625 C 1.390625 -1.3125 1.210938 -1.035156 1.140625 -0.734375 L 4.5 -0.734375 L 4.5 0 Z M 0.28125 0 "/>
</g>
<g id="glyph-0-15">
<path d="M 2.28125 0.171875 C 1.550781 0.171875 1.019531 -0.0234375 0.6875 -0.421875 C 0.363281 -0.828125 0.203125 -1.316406 0.203125 -1.890625 L 1.015625 -1.890625 C 1.046875 -1.492188 1.117188 -1.203125 1.234375 -1.015625 C 1.441406 -0.691406 1.804688 -0.53125 2.328125 -0.53125 C 2.734375 -0.53125 3.054688 -0.640625 3.296875 -0.859375 C 3.546875 -1.078125 3.671875 -1.359375 3.671875 -1.703125 C 3.671875 -2.128906 3.539062 -2.425781 3.28125 -2.59375 C 3.03125 -2.757812 2.671875 -2.84375 2.203125 -2.84375 C 2.148438 -2.84375 2.097656 -2.84375 2.046875 -2.84375 C 1.992188 -2.84375 1.941406 -2.84375 1.890625 -2.84375 L 1.890625 -3.515625 C 1.972656 -3.515625 2.039062 -3.507812 2.09375 -3.5 C 2.144531 -3.5 2.203125 -3.5 2.265625 -3.5 C 2.554688 -3.5 2.796875 -3.546875 2.984375 -3.640625 C 3.304688 -3.796875 3.46875 -4.082031 3.46875 -4.5 C 3.46875 -4.800781 3.359375 -5.035156 3.140625 -5.203125 C 2.921875 -5.367188 2.671875 -5.453125 2.390625 -5.453125 C 1.867188 -5.453125 1.507812 -5.28125 1.3125 -4.9375 C 1.207031 -4.75 1.144531 -4.476562 1.125 -4.125 L 0.359375 -4.125 C 0.359375 -4.582031 0.453125 -4.972656 0.640625 -5.296875 C 0.953125 -5.867188 1.503906 -6.15625 2.296875 -6.15625 C 2.929688 -6.15625 3.421875 -6.015625 3.765625 -5.734375 C 4.109375 -5.460938 4.28125 -5.0625 4.28125 -4.53125 C 4.28125 -4.144531 4.175781 -3.835938 3.96875 -3.609375 C 3.84375 -3.460938 3.679688 -3.347656 3.484375 -3.265625 C 3.804688 -3.171875 4.054688 -3 4.234375 -2.75 C 4.421875 -2.5 4.515625 -2.191406 4.515625 -1.828125 C 4.515625 -1.234375 4.316406 -0.75 3.921875 -0.375 C 3.535156 -0.0078125 2.988281 0.171875 2.28125 0.171875 Z M 2.28125 0.171875 "/>
</g>
<g id="glyph-0-16">
<path d="M 2.90625 -2.171875 L 2.90625 -4.96875 L 0.9375 -2.171875 Z M 2.921875 0 L 2.921875 -1.5 L 0.21875 -1.5 L 0.21875 -2.265625 L 3.046875 -6.171875 L 3.6875 -6.171875 L 3.6875 -2.171875 L 4.59375 -2.171875 L 4.59375 -1.5 L 3.6875 -1.5 L 3.6875 0 Z M 2.921875 0 "/>
</g>
<g id="glyph-0-17">
<path d="M 2.375 -6.15625 C 3.175781 -6.15625 3.753906 -5.828125 4.109375 -5.171875 C 4.378906 -4.660156 4.515625 -3.960938 4.515625 -3.078125 C 4.515625 -2.242188 4.390625 -1.554688 4.140625 -1.015625 C 3.785156 -0.222656 3.195312 0.171875 2.375 0.171875 C 1.632812 0.171875 1.082031 -0.148438 0.71875 -0.796875 C 0.425781 -1.328125 0.28125 -2.046875 0.28125 -2.953125 C 0.28125 -3.648438 0.367188 -4.25 0.546875 -4.75 C 0.878906 -5.6875 1.488281 -6.15625 2.375 -6.15625 Z M 2.375 -0.53125 C 2.769531 -0.53125 3.085938 -0.707031 3.328125 -1.0625 C 3.566406 -1.425781 3.6875 -2.085938 3.6875 -3.046875 C 3.6875 -3.753906 3.597656 -4.332031 3.421875 -4.78125 C 3.253906 -5.226562 2.921875 -5.453125 2.421875 -5.453125 C 1.972656 -5.453125 1.640625 -5.238281 1.421875 -4.8125 C 1.210938 -4.382812 1.109375 -3.753906 1.109375 -2.921875 C 1.109375 -2.296875 1.175781 -1.789062 1.3125 -1.40625 C 1.519531 -0.820312 1.875 -0.53125 2.375 -0.53125 Z M 2.375 -0.53125 "/>
</g>
<g id="glyph-1-0">
<path d="M 0.359375 0 L 0.359375 -7.890625 L 6.625 -7.890625 L 6.625 0 Z M 5.625 -0.984375 L 5.625 -6.90625 L 1.34375 -6.90625 L 1.34375 -0.984375 Z M 5.625 -0.984375 "/>
</g>
<g id="glyph-1-1">
<path d="M 0.84375 -7.890625 L 1.90625 -7.890625 L 1.90625 -0.9375 L 5.90625 -0.9375 L 5.90625 0 L 0.84375 0 Z M 0.84375 -7.890625 "/>
</g>
<g id="glyph-1-2">
<path d="M 2.984375 -0.625 C 3.628906 -0.625 4.070312 -0.863281 4.3125 -1.34375 C 4.550781 -1.832031 4.671875 -2.375 4.671875 -2.96875 C 4.671875 -3.507812 4.582031 -3.945312 4.40625 -4.28125 C 4.132812 -4.8125 3.664062 -5.078125 3 -5.078125 C 2.40625 -5.078125 1.972656 -4.847656 1.703125 -4.390625 C 1.441406 -3.941406 1.3125 -3.398438 1.3125 -2.765625 C 1.3125 -2.148438 1.441406 -1.640625 1.703125 -1.234375 C 1.972656 -0.828125 2.398438 -0.625 2.984375 -0.625 Z M 3.03125 -5.921875 C 3.769531 -5.921875 4.394531 -5.671875 4.90625 -5.171875 C 5.414062 -4.679688 5.671875 -3.957031 5.671875 -3 C 5.671875 -2.070312 5.445312 -1.304688 5 -0.703125 C 4.550781 -0.0976562 3.851562 0.203125 2.90625 0.203125 C 2.113281 0.203125 1.484375 -0.0625 1.015625 -0.59375 C 0.546875 -1.125 0.3125 -1.84375 0.3125 -2.75 C 0.3125 -3.71875 0.554688 -4.488281 1.046875 -5.0625 C 1.535156 -5.632812 2.195312 -5.921875 3.03125 -5.921875 Z M 3 -5.890625 Z M 3 -5.890625 "/>
</g>
<g id="glyph-1-3">
<path d="M 2.734375 -5.859375 C 3.191406 -5.859375 3.585938 -5.742188 3.921875 -5.515625 C 4.097656 -5.390625 4.285156 -5.207031 4.484375 -4.96875 L 4.484375 -5.703125 L 5.375 -5.703125 L 5.375 -0.46875 C 5.375 0.257812 5.265625 0.835938 5.046875 1.265625 C 4.648438 2.046875 3.894531 2.4375 2.78125 2.4375 C 2.15625 2.4375 1.628906 2.296875 1.203125 2.015625 C 0.785156 1.734375 0.550781 1.300781 0.5 0.71875 L 1.484375 0.71875 C 1.535156 0.96875 1.628906 1.164062 1.765625 1.3125 C 1.984375 1.53125 2.328125 1.640625 2.796875 1.640625 C 3.535156 1.640625 4.019531 1.375 4.25 0.84375 C 4.382812 0.539062 4.445312 -0.00390625 4.4375 -0.796875 C 4.25 -0.503906 4.015625 -0.285156 3.734375 -0.140625 C 3.460938 -0.00390625 3.109375 0.0625 2.671875 0.0625 C 2.046875 0.0625 1.5 -0.15625 1.03125 -0.59375 C 0.5625 -1.03125 0.328125 -1.757812 0.328125 -2.78125 C 0.328125 -3.75 0.5625 -4.503906 1.03125 -5.046875 C 1.5 -5.585938 2.066406 -5.859375 2.734375 -5.859375 Z M 4.484375 -2.90625 C 4.484375 -3.613281 4.332031 -4.140625 4.03125 -4.484375 C 3.738281 -4.828125 3.367188 -5 2.921875 -5 C 2.234375 -5 1.765625 -4.679688 1.515625 -4.046875 C 1.390625 -3.703125 1.328125 -3.253906 1.328125 -2.703125 C 1.328125 -2.054688 1.457031 -1.5625 1.71875 -1.21875 C 1.976562 -0.882812 2.332031 -0.71875 2.78125 -0.71875 C 3.46875 -0.71875 3.957031 -1.03125 4.25 -1.65625 C 4.40625 -2.007812 4.484375 -2.425781 4.484375 -2.90625 Z M 2.859375 -5.890625 Z M 2.859375 -5.890625 "/>
</g>
<g id="glyph-1-4">
<path d="M 1.046875 -5.453125 L 1.046875 -6.1875 C 1.742188 -6.257812 2.226562 -6.375 2.5 -6.53125 C 2.78125 -6.6875 2.988281 -7.0625 3.125 -7.65625 L 3.890625 -7.65625 L 3.890625 0 L 2.859375 0 L 2.859375 -5.453125 Z M 1.046875 -5.453125 "/>
</g>
<g id="glyph-1-5">
<path d="M 2.96875 -7.6875 C 3.96875 -7.6875 4.691406 -7.28125 5.140625 -6.46875 C 5.484375 -5.832031 5.65625 -4.960938 5.65625 -3.859375 C 5.65625 -2.804688 5.5 -1.941406 5.1875 -1.265625 C 4.726562 -0.285156 3.988281 0.203125 2.96875 0.203125 C 2.039062 0.203125 1.351562 -0.195312 0.90625 -1 C 0.53125 -1.664062 0.34375 -2.5625 0.34375 -3.6875 C 0.34375 -4.5625 0.457031 -5.3125 0.6875 -5.9375 C 1.101562 -7.101562 1.863281 -7.6875 2.96875 -7.6875 Z M 2.96875 -0.671875 C 3.46875 -0.671875 3.863281 -0.890625 4.15625 -1.328125 C 4.457031 -1.773438 4.609375 -2.601562 4.609375 -3.8125 C 4.609375 -4.6875 4.5 -5.40625 4.28125 -5.96875 C 4.070312 -6.539062 3.65625 -6.828125 3.03125 -6.828125 C 2.46875 -6.828125 2.050781 -6.554688 1.78125 -6.015625 C 1.519531 -5.484375 1.390625 -4.695312 1.390625 -3.65625 C 1.390625 -2.863281 1.472656 -2.234375 1.640625 -1.765625 C 1.898438 -1.035156 2.34375 -0.671875 2.96875 -0.671875 Z M 2.96875 -0.671875 "/>
</g>
<g id="glyph-1-6">
</g>
<g id="glyph-1-7">
<path d="M 0.8125 -7.890625 L 2.34375 -7.890625 L 4.609375 -1.21875 L 6.859375 -7.890625 L 8.375 -7.890625 L 8.375 0 L 7.359375 0 L 7.359375 -4.65625 C 7.359375 -4.820312 7.359375 -5.085938 7.359375 -5.453125 C 7.367188 -5.828125 7.375 -6.226562 7.375 -6.65625 L 5.125 0 L 4.078125 0 L 1.8125 -6.65625 L 1.8125 -6.40625 C 1.8125 -6.21875 1.8125 -5.925781 1.8125 -5.53125 C 1.820312 -5.132812 1.828125 -4.84375 1.828125 -4.65625 L 1.828125 0 L 0.8125 0 Z M 0.8125 -7.890625 "/>
</g>
<g id="glyph-1-8">
<path d="M 1.453125 -1.53125 C 1.453125 -1.25 1.550781 -1.023438 1.75 -0.859375 C 1.957031 -0.703125 2.203125 -0.625 2.484375 -0.625 C 2.816406 -0.625 3.144531 -0.703125 3.46875 -0.859375 C 4.007812 -1.117188 4.28125 -1.550781 4.28125 -2.15625 L 4.28125 -2.921875 C 4.15625 -2.847656 4 -2.785156 3.8125 -2.734375 C 3.632812 -2.691406 3.453125 -2.65625 3.265625 -2.625 L 2.6875 -2.5625 C 2.332031 -2.507812 2.066406 -2.4375 1.890625 -2.34375 C 1.597656 -2.164062 1.453125 -1.894531 1.453125 -1.53125 Z M 3.796875 -3.484375 C 4.015625 -3.515625 4.160156 -3.609375 4.234375 -3.765625 C 4.273438 -3.847656 4.296875 -3.972656 4.296875 -4.140625 C 4.296875 -4.460938 4.175781 -4.695312 3.9375 -4.84375 C 3.707031 -5 3.375 -5.078125 2.9375 -5.078125 C 2.4375 -5.078125 2.082031 -4.941406 1.875 -4.671875 C 1.75 -4.515625 1.671875 -4.289062 1.640625 -4 L 0.734375 -4 C 0.753906 -4.707031 0.984375 -5.195312 1.421875 -5.46875 C 1.867188 -5.75 2.382812 -5.890625 2.96875 -5.890625 C 3.644531 -5.890625 4.191406 -5.757812 4.609375 -5.5 C 5.035156 -5.25 5.25 -4.847656 5.25 -4.296875 L 5.25 -0.984375 C 5.25 -0.890625 5.265625 -0.8125 5.296875 -0.75 C 5.335938 -0.6875 5.425781 -0.65625 5.5625 -0.65625 C 5.601562 -0.65625 5.648438 -0.65625 5.703125 -0.65625 C 5.765625 -0.664062 5.820312 -0.675781 5.875 -0.6875 L 5.875 0.03125 C 5.726562 0.0703125 5.613281 0.0976562 5.53125 0.109375 C 5.457031 0.117188 5.351562 0.125 5.21875 0.125 C 4.882812 0.125 4.640625 0.00390625 4.484375 -0.234375 C 4.410156 -0.359375 4.359375 -0.535156 4.328125 -0.765625 C 4.128906 -0.503906 3.84375 -0.28125 3.46875 -0.09375 C 3.101562 0.0898438 2.695312 0.1875 2.25 0.1875 C 1.71875 0.1875 1.28125 0.0234375 0.9375 -0.296875 C 0.601562 -0.617188 0.4375 -1.023438 0.4375 -1.515625 C 0.4375 -2.046875 0.601562 -2.457031 0.9375 -2.75 C 1.269531 -3.039062 1.707031 -3.222656 2.25 -3.296875 Z M 2.984375 -5.890625 Z M 2.984375 -5.890625 "/>
</g>
<g id="glyph-1-9">
<path d="M 1.28125 -1.8125 C 1.3125 -1.488281 1.394531 -1.238281 1.53125 -1.0625 C 1.769531 -0.75 2.191406 -0.59375 2.796875 -0.59375 C 3.148438 -0.59375 3.460938 -0.671875 3.734375 -0.828125 C 4.003906 -0.984375 4.140625 -1.222656 4.140625 -1.546875 C 4.140625 -1.796875 4.03125 -1.984375 3.8125 -2.109375 C 3.675781 -2.191406 3.398438 -2.285156 2.984375 -2.390625 L 2.21875 -2.578125 C 1.726562 -2.703125 1.367188 -2.835938 1.140625 -2.984375 C 0.722656 -3.253906 0.515625 -3.617188 0.515625 -4.078125 C 0.515625 -4.617188 0.707031 -5.054688 1.09375 -5.390625 C 1.488281 -5.734375 2.019531 -5.90625 2.6875 -5.90625 C 3.550781 -5.90625 4.175781 -5.648438 4.5625 -5.140625 C 4.800781 -4.816406 4.914062 -4.46875 4.90625 -4.09375 L 4 -4.09375 C 3.976562 -4.3125 3.898438 -4.507812 3.765625 -4.6875 C 3.546875 -4.945312 3.160156 -5.078125 2.609375 -5.078125 C 2.242188 -5.078125 1.96875 -5.003906 1.78125 -4.859375 C 1.59375 -4.722656 1.5 -4.539062 1.5 -4.3125 C 1.5 -4.0625 1.625 -3.863281 1.875 -3.71875 C 2.007812 -3.625 2.21875 -3.539062 2.5 -3.46875 L 3.140625 -3.3125 C 3.835938 -3.144531 4.300781 -2.984375 4.53125 -2.828125 C 4.914062 -2.578125 5.109375 -2.191406 5.109375 -1.671875 C 5.109375 -1.148438 4.910156 -0.703125 4.515625 -0.328125 C 4.128906 0.0351562 3.539062 0.21875 2.75 0.21875 C 1.894531 0.21875 1.285156 0.0234375 0.921875 -0.359375 C 0.566406 -0.753906 0.378906 -1.238281 0.359375 -1.8125 Z M 2.71875 -5.890625 Z M 2.71875 -5.890625 "/>
</g>
<g id="glyph-1-10">
<path d="M 0.734375 -7.890625 L 1.703125 -7.890625 L 1.703125 0 L 0.734375 0 Z M 0.734375 -7.890625 "/>
</g>
<g id="glyph-1-11">
<path d="M 0.6875 -7.890625 L 1.609375 -7.890625 L 1.609375 -3.3125 L 4.09375 -5.75 L 5.328125 -5.75 L 3.125 -3.59375 L 5.453125 0 L 4.21875 0 L 2.421875 -2.90625 L 1.609375 -2.15625 L 1.609375 0 L 0.6875 0 Z M 0.6875 -7.890625 "/>
</g>
<g id="glyph-1-12">
<path d="M 3.109375 -5.875 C 3.515625 -5.875 3.90625 -5.78125 4.28125 -5.59375 C 4.664062 -5.40625 4.960938 -5.15625 5.171875 -4.84375 C 5.359375 -4.5625 5.484375 -4.222656 5.546875 -3.828125 C 5.609375 -3.566406 5.640625 -3.144531 5.640625 -2.5625 L 1.421875 -2.5625 C 1.441406 -1.976562 1.578125 -1.507812 1.828125 -1.15625 C 2.085938 -0.8125 2.488281 -0.640625 3.03125 -0.640625 C 3.539062 -0.640625 3.945312 -0.804688 4.25 -1.140625 C 4.414062 -1.328125 4.535156 -1.550781 4.609375 -1.8125 L 5.5625 -1.8125 C 5.53125 -1.59375 5.441406 -1.351562 5.296875 -1.09375 C 5.160156 -0.832031 5.003906 -0.625 4.828125 -0.46875 C 4.535156 -0.175781 4.175781 0.0195312 3.75 0.125 C 3.507812 0.175781 3.242188 0.203125 2.953125 0.203125 C 2.234375 0.203125 1.625 -0.0546875 1.125 -0.578125 C 0.632812 -1.097656 0.390625 -1.828125 0.390625 -2.765625 C 0.390625 -3.691406 0.640625 -4.441406 1.140625 -5.015625 C 1.640625 -5.585938 2.296875 -5.875 3.109375 -5.875 Z M 4.640625 -3.328125 C 4.609375 -3.753906 4.519531 -4.09375 4.375 -4.34375 C 4.101562 -4.800781 3.660156 -5.03125 3.046875 -5.03125 C 2.597656 -5.03125 2.222656 -4.867188 1.921875 -4.546875 C 1.628906 -4.234375 1.472656 -3.828125 1.453125 -3.328125 Z M 3.015625 -5.890625 Z M 3.015625 -5.890625 "/>
</g>
<g id="glyph-2-0">
<path d="M 0 -0.359375 L -7.890625 -0.359375 L -7.890625 -6.625 L 0 -6.625 Z M -0.984375 -5.625 L -6.90625 -5.625 L -6.90625 -1.34375 L -0.984375 -1.34375 Z M -0.984375 -5.625 "/>
</g>
<g id="glyph-2-1">
<path d="M -8.109375 -4.15625 C -8.109375 -5.15625 -7.84375 -5.929688 -7.3125 -6.484375 C -6.789062 -7.035156 -6.191406 -7.34375 -5.515625 -7.40625 L -5.515625 -6.359375 C -6.023438 -6.242188 -6.425781 -6.007812 -6.71875 -5.65625 C -7.019531 -5.300781 -7.171875 -4.804688 -7.171875 -4.171875 C -7.171875 -3.398438 -6.894531 -2.773438 -6.34375 -2.296875 C -5.800781 -1.816406 -4.96875 -1.578125 -3.84375 -1.578125 C -2.914062 -1.578125 -2.164062 -1.789062 -1.59375 -2.21875 C -1.019531 -2.65625 -0.734375 -3.300781 -0.734375 -4.15625 C -0.734375 -4.9375 -1.035156 -5.535156 -1.640625 -5.953125 C -1.960938 -6.171875 -2.382812 -6.332031 -2.90625 -6.4375 L -2.90625 -7.484375 C -2.070312 -7.390625 -1.375 -7.082031 -0.8125 -6.5625 C -0.132812 -5.9375 0.203125 -5.085938 0.203125 -4.015625 C 0.203125 -3.097656 -0.0703125 -2.332031 -0.625 -1.71875 C -1.363281 -0.894531 -2.5 -0.484375 -4.03125 -0.484375 C -5.195312 -0.484375 -6.148438 -0.789062 -6.890625 -1.40625 C -7.703125 -2.070312 -8.109375 -2.988281 -8.109375 -4.15625 Z M -8.109375 -3.953125 Z M -8.109375 -3.953125 "/>
</g>
<g id="glyph-2-2">
<path d="M -0.625 -2.984375 C -0.625 -3.628906 -0.863281 -4.070312 -1.34375 -4.3125 C -1.832031 -4.550781 -2.375 -4.671875 -2.96875 -4.671875 C -3.507812 -4.671875 -3.945312 -4.582031 -4.28125 -4.40625 C -4.8125 -4.132812 -5.078125 -3.664062 -5.078125 -3 C -5.078125 -2.40625 -4.847656 -1.972656 -4.390625 -1.703125 C -3.941406 -1.441406 -3.398438 -1.3125 -2.765625 -1.3125 C -2.148438 -1.3125 -1.640625 -1.441406 -1.234375 -1.703125 C -0.828125 -1.972656 -0.625 -2.398438 -0.625 -2.984375 Z M -5.921875 -3.03125 C -5.921875 -3.769531 -5.671875 -4.394531 -5.171875 -4.90625 C -4.679688 -5.414062 -3.957031 -5.671875 -3 -5.671875 C -2.070312 -5.671875 -1.304688 -5.445312 -0.703125 -5 C -0.0976562 -4.550781 0.203125 -3.851562 0.203125 -2.90625 C 0.203125 -2.113281 -0.0625 -1.484375 -0.59375 -1.015625 C -1.125 -0.546875 -1.84375 -0.3125 -2.75 -0.3125 C -3.71875 -0.3125 -4.488281 -0.554688 -5.0625 -1.046875 C -5.632812 -1.535156 -5.921875 -2.195312 -5.921875 -3.03125 Z M -5.890625 -3 Z M -5.890625 -3 "/>
</g>
<g id="glyph-2-3">
<path d="M -5.75 -1.671875 L -1.9375 -1.671875 C -1.644531 -1.671875 -1.40625 -1.71875 -1.21875 -1.8125 C -0.875 -1.988281 -0.703125 -2.3125 -0.703125 -2.78125 C -0.703125 -3.445312 -1 -3.90625 -1.59375 -4.15625 C -1.914062 -4.28125 -2.359375 -4.34375 -2.921875 -4.34375 L -5.75 -4.34375 L -5.75 -5.3125 L 0 -5.3125 L 0 -4.40625 L -0.84375 -4.421875 C -0.625 -4.296875 -0.441406 -4.140625 -0.296875 -3.953125 C 0.00390625 -3.578125 0.15625 -3.128906 0.15625 -2.609375 C 0.15625 -1.785156 -0.117188 -1.222656 -0.671875 -0.921875 C -0.960938 -0.765625 -1.351562 -0.6875 -1.84375 -0.6875 L -5.75 -0.6875 Z M -5.890625 -3 Z M -5.890625 -3 "/>
</g>
<g id="glyph-2-4">
<path d="M -5.75 -0.703125 L -5.75 -1.625 L -4.9375 -1.625 C -5.269531 -1.894531 -5.507812 -2.179688 -5.65625 -2.484375 C -5.800781 -2.796875 -5.875 -3.132812 -5.875 -3.5 C -5.875 -4.320312 -5.59375 -4.875 -5.03125 -5.15625 C -4.71875 -5.3125 -4.269531 -5.390625 -3.6875 -5.390625 L 0 -5.390625 L 0 -4.421875 L -3.625 -4.421875 C -3.976562 -4.421875 -4.257812 -4.367188 -4.46875 -4.265625 C -4.832031 -4.085938 -5.015625 -3.773438 -5.015625 -3.328125 C -5.015625 -3.097656 -4.988281 -2.910156 -4.9375 -2.765625 C -4.863281 -2.492188 -4.707031 -2.257812 -4.46875 -2.0625 C -4.28125 -1.90625 -4.082031 -1.800781 -3.875 -1.75 C -3.675781 -1.695312 -3.390625 -1.671875 -3.015625 -1.671875 L 0 -1.671875 L 0 -0.703125 Z M -5.890625 -2.984375 Z M -5.890625 -2.984375 "/>
</g>
<g id="glyph-2-5">
<path d="M -7.359375 -0.90625 L -7.359375 -1.875 L -5.75 -1.875 L -5.75 -2.796875 L -4.96875 -2.796875 L -4.96875 -1.875 L -1.203125 -1.875 C -1.003906 -1.875 -0.875 -1.941406 -0.8125 -2.078125 C -0.769531 -2.160156 -0.75 -2.285156 -0.75 -2.453125 C -0.75 -2.503906 -0.75 -2.554688 -0.75 -2.609375 C -0.75 -2.660156 -0.753906 -2.722656 -0.765625 -2.796875 L 0 -2.796875 C 0.03125 -2.679688 0.0507812 -2.5625 0.0625 -2.4375 C 0.0820312 -2.320312 0.09375 -2.195312 0.09375 -2.0625 C 0.09375 -1.613281 -0.0195312 -1.304688 -0.25 -1.140625 C -0.488281 -0.984375 -0.789062 -0.90625 -1.15625 -0.90625 L -4.96875 -0.90625 L -4.96875 -0.125 L -5.75 -0.125 L -5.75 -0.90625 Z M -7.359375 -0.90625 "/>
</g>
<g id="glyph-3-0">
<path d="M 0.421875 0 L 0.421875 -9.46875 L 7.9375 -9.46875 L 7.9375 0 Z M 6.75 -1.1875 L 6.75 -8.28125 L 1.609375 -8.28125 L 1.609375 -1.1875 Z M 6.75 -1.1875 "/>
</g>
<g id="glyph-3-1">
<path d="M 4.640625 -1.09375 C 5.078125 -1.09375 5.4375 -1.140625 5.71875 -1.234375 C 6.207031 -1.398438 6.613281 -1.722656 6.9375 -2.203125 C 7.1875 -2.578125 7.367188 -3.066406 7.484375 -3.671875 C 7.546875 -4.023438 7.578125 -4.351562 7.578125 -4.65625 C 7.578125 -5.832031 7.34375 -6.742188 6.875 -7.390625 C 6.414062 -8.046875 5.664062 -8.375 4.625 -8.375 L 2.359375 -8.375 L 2.359375 -1.09375 Z M 1.0625 -9.46875 L 4.90625 -9.46875 C 6.207031 -9.46875 7.210938 -9.003906 7.921875 -8.078125 C 8.566406 -7.242188 8.890625 -6.175781 8.890625 -4.875 C 8.890625 -3.875 8.703125 -2.96875 8.328125 -2.15625 C 7.660156 -0.71875 6.515625 0 4.890625 0 L 1.0625 0 Z M 1.0625 -9.46875 "/>
</g>
<g id="glyph-3-2">
<path d="M 0.84375 -6.875 L 2.03125 -6.875 L 2.03125 0 L 0.84375 0 Z M 0.84375 -9.46875 L 2.03125 -9.46875 L 2.03125 -8.15625 L 0.84375 -8.15625 Z M 0.84375 -9.46875 "/>
</g>
<g id="glyph-3-3">
<path d="M 1.546875 -2.171875 C 1.578125 -1.773438 1.671875 -1.476562 1.828125 -1.28125 C 2.117188 -0.90625 2.628906 -0.71875 3.359375 -0.71875 C 3.785156 -0.71875 4.160156 -0.8125 4.484375 -1 C 4.816406 -1.1875 4.984375 -1.472656 4.984375 -1.859375 C 4.984375 -2.160156 4.847656 -2.390625 4.578125 -2.546875 C 4.410156 -2.640625 4.082031 -2.75 3.59375 -2.875 L 2.671875 -3.09375 C 2.078125 -3.238281 1.640625 -3.40625 1.359375 -3.59375 C 0.867188 -3.90625 0.625 -4.335938 0.625 -4.890625 C 0.625 -5.546875 0.859375 -6.070312 1.328125 -6.46875 C 1.796875 -6.875 2.425781 -7.078125 3.21875 -7.078125 C 4.257812 -7.078125 5.007812 -6.773438 5.46875 -6.171875 C 5.757812 -5.785156 5.898438 -5.367188 5.890625 -4.921875 L 4.796875 -4.921875 C 4.773438 -5.179688 4.679688 -5.421875 4.515625 -5.640625 C 4.253906 -5.941406 3.796875 -6.09375 3.140625 -6.09375 C 2.691406 -6.09375 2.351562 -6.007812 2.125 -5.84375 C 1.90625 -5.675781 1.796875 -5.453125 1.796875 -5.171875 C 1.796875 -4.867188 1.945312 -4.628906 2.25 -4.453125 C 2.414062 -4.347656 2.664062 -4.253906 3 -4.171875 L 3.765625 -3.984375 C 4.597656 -3.785156 5.160156 -3.585938 5.453125 -3.390625 C 5.898438 -3.097656 6.125 -2.632812 6.125 -2 C 6.125 -1.382812 5.890625 -0.851562 5.421875 -0.40625 C 4.953125 0.0390625 4.242188 0.265625 3.296875 0.265625 C 2.265625 0.265625 1.535156 0.0273438 1.109375 -0.4375 C 0.679688 -0.90625 0.453125 -1.484375 0.421875 -2.171875 Z M 3.25 -7.078125 Z M 3.25 -7.078125 "/>
</g>
<g id="glyph-3-4">
<path d="M 1.078125 -8.828125 L 2.25 -8.828125 L 2.25 -6.90625 L 3.359375 -6.90625 L 3.359375 -5.953125 L 2.25 -5.953125 L 2.25 -1.453125 C 2.25 -1.210938 2.332031 -1.050781 2.5 -0.96875 C 2.59375 -0.914062 2.742188 -0.890625 2.953125 -0.890625 C 3.003906 -0.890625 3.0625 -0.890625 3.125 -0.890625 C 3.195312 -0.898438 3.273438 -0.910156 3.359375 -0.921875 L 3.359375 0 C 3.222656 0.0390625 3.082031 0.0664062 2.9375 0.078125 C 2.800781 0.0976562 2.644531 0.109375 2.46875 0.109375 C 1.925781 0.109375 1.554688 -0.0234375 1.359375 -0.296875 C 1.171875 -0.578125 1.078125 -0.941406 1.078125 -1.390625 L 1.078125 -5.953125 L 0.140625 -5.953125 L 0.140625 -6.90625 L 1.078125 -6.90625 Z M 1.078125 -8.828125 "/>
</g>
<g id="glyph-3-5">
<path d="M 0.890625 -6.90625 L 1.984375 -6.90625 L 1.984375 -5.71875 C 2.078125 -5.945312 2.296875 -6.226562 2.640625 -6.5625 C 2.992188 -6.894531 3.40625 -7.0625 3.875 -7.0625 C 3.894531 -7.0625 3.929688 -7.054688 3.984375 -7.046875 C 4.035156 -7.046875 4.117188 -7.039062 4.234375 -7.03125 L 4.234375 -5.796875 C 4.171875 -5.816406 4.109375 -5.828125 4.046875 -5.828125 C 3.992188 -5.828125 3.929688 -5.828125 3.859375 -5.828125 C 3.273438 -5.828125 2.828125 -5.640625 2.515625 -5.265625 C 2.203125 -4.890625 2.046875 -4.457031 2.046875 -3.96875 L 2.046875 0 L 0.890625 0 Z M 0.890625 -6.90625 "/>
</g>
<g id="glyph-3-6">
<path d="M 0.765625 -9.5 L 1.890625 -9.5 L 1.890625 -6.0625 C 2.140625 -6.394531 2.441406 -6.644531 2.796875 -6.8125 C 3.148438 -6.988281 3.535156 -7.078125 3.953125 -7.078125 C 4.804688 -7.078125 5.5 -6.78125 6.03125 -6.1875 C 6.570312 -5.601562 6.84375 -4.734375 6.84375 -3.578125 C 6.84375 -2.492188 6.578125 -1.585938 6.046875 -0.859375 C 5.515625 -0.140625 4.78125 0.21875 3.84375 0.21875 C 3.320312 0.21875 2.878906 0.0898438 2.515625 -0.15625 C 2.304688 -0.3125 2.078125 -0.554688 1.828125 -0.890625 L 1.828125 0 L 0.765625 0 Z M 3.78125 -0.8125 C 4.40625 -0.8125 4.875 -1.054688 5.1875 -1.546875 C 5.5 -2.046875 5.65625 -2.707031 5.65625 -3.53125 C 5.65625 -4.25 5.5 -4.847656 5.1875 -5.328125 C 4.875 -5.804688 4.414062 -6.046875 3.8125 -6.046875 C 3.28125 -6.046875 2.816406 -5.847656 2.421875 -5.453125 C 2.023438 -5.066406 1.828125 -4.425781 1.828125 -3.53125 C 1.828125 -2.875 1.90625 -2.347656 2.0625 -1.953125 C 2.375 -1.191406 2.945312 -0.8125 3.78125 -0.8125 Z M 3.78125 -0.8125 "/>
</g>
<g id="glyph-3-7">
<path d="M 2.015625 -6.90625 L 2.015625 -2.328125 C 2.015625 -1.972656 2.066406 -1.679688 2.171875 -1.453125 C 2.378906 -1.046875 2.765625 -0.84375 3.328125 -0.84375 C 4.140625 -0.84375 4.691406 -1.203125 4.984375 -1.921875 C 5.140625 -2.304688 5.21875 -2.835938 5.21875 -3.515625 L 5.21875 -6.90625 L 6.375 -6.90625 L 6.375 0 L 5.28125 0 L 5.296875 -1.015625 C 5.148438 -0.753906 4.960938 -0.535156 4.734375 -0.359375 C 4.296875 0.00390625 3.757812 0.1875 3.125 0.1875 C 2.144531 0.1875 1.472656 -0.140625 1.109375 -0.796875 C 0.921875 -1.148438 0.828125 -1.625 0.828125 -2.21875 L 0.828125 -6.90625 Z M 3.609375 -7.078125 Z M 3.609375 -7.078125 "/>
</g>
<g id="glyph-3-8">
<path d="M 3.59375 -0.75 C 4.363281 -0.75 4.890625 -1.039062 5.171875 -1.625 C 5.460938 -2.207031 5.609375 -2.851562 5.609375 -3.5625 C 5.609375 -4.207031 5.503906 -4.734375 5.296875 -5.140625 C 4.960938 -5.773438 4.398438 -6.09375 3.609375 -6.09375 C 2.898438 -6.09375 2.382812 -5.820312 2.0625 -5.28125 C 1.738281 -4.738281 1.578125 -4.082031 1.578125 -3.3125 C 1.578125 -2.582031 1.738281 -1.972656 2.0625 -1.484375 C 2.382812 -0.992188 2.894531 -0.75 3.59375 -0.75 Z M 3.640625 -7.109375 C 4.523438 -7.109375 5.273438 -6.8125 5.890625 -6.21875 C 6.503906 -5.625 6.8125 -4.75 6.8125 -3.59375 C 6.8125 -2.476562 6.539062 -1.554688 6 -0.828125 C 5.457031 -0.109375 4.617188 0.25 3.484375 0.25 C 2.535156 0.25 1.78125 -0.0664062 1.21875 -0.703125 C 0.65625 -1.347656 0.375 -2.210938 0.375 -3.296875 C 0.375 -4.460938 0.664062 -5.390625 1.25 -6.078125 C 1.84375 -6.765625 2.640625 -7.109375 3.640625 -7.109375 Z M 3.59375 -7.078125 Z M 3.59375 -7.078125 "/>
</g>
<g id="glyph-3-9">
<path d="M 0.84375 -6.90625 L 1.953125 -6.90625 L 1.953125 -5.921875 C 2.273438 -6.328125 2.617188 -6.617188 2.984375 -6.796875 C 3.359375 -6.972656 3.765625 -7.0625 4.203125 -7.0625 C 5.179688 -7.0625 5.847656 -6.71875 6.203125 -6.03125 C 6.390625 -5.65625 6.484375 -5.117188 6.484375 -4.421875 L 6.484375 0 L 5.296875 0 L 5.296875 -4.359375 C 5.296875 -4.773438 5.234375 -5.113281 5.109375 -5.375 C 4.898438 -5.800781 4.523438 -6.015625 3.984375 -6.015625 C 3.710938 -6.015625 3.488281 -5.988281 3.3125 -5.9375 C 3 -5.84375 2.71875 -5.648438 2.46875 -5.359375 C 2.28125 -5.128906 2.15625 -4.894531 2.09375 -4.65625 C 2.039062 -4.414062 2.015625 -4.066406 2.015625 -3.609375 L 2.015625 0 L 0.84375 0 Z M 3.578125 -7.078125 Z M 3.578125 -7.078125 "/>
</g>
<g id="glyph-3-10">
</g>
<g id="glyph-3-11">
<path d="M 1.140625 -7.953125 C 1.160156 -8.429688 1.242188 -8.785156 1.390625 -9.015625 C 1.660156 -9.410156 2.179688 -9.609375 2.953125 -9.609375 C 3.023438 -9.609375 3.097656 -9.601562 3.171875 -9.59375 C 3.253906 -9.59375 3.347656 -9.585938 3.453125 -9.578125 L 3.453125 -8.515625 C 3.328125 -8.523438 3.238281 -8.53125 3.1875 -8.53125 C 3.132812 -8.539062 3.082031 -8.546875 3.03125 -8.546875 C 2.6875 -8.546875 2.476562 -8.453125 2.40625 -8.265625 C 2.332031 -8.085938 2.296875 -7.625 2.296875 -6.875 L 3.453125 -6.875 L 3.453125 -5.953125 L 2.28125 -5.953125 L 2.28125 0 L 1.140625 0 L 1.140625 -5.953125 L 0.1875 -5.953125 L 0.1875 -6.875 L 1.140625 -6.875 Z M 1.140625 -7.953125 "/>
</g>
<g id="glyph-3-12">
<path d="M 1 -9.46875 L 2.28125 -9.46875 L 2.28125 -1.125 L 7.078125 -1.125 L 7.078125 0 L 1 0 Z M 1 -9.46875 "/>
</g>
<g id="glyph-3-13">
<path d="M 3.28125 -7.03125 C 3.820312 -7.03125 4.296875 -6.894531 4.703125 -6.625 C 4.921875 -6.476562 5.144531 -6.257812 5.375 -5.96875 L 5.375 -6.84375 L 6.453125 -6.84375 L 6.453125 -0.5625 C 6.453125 0.308594 6.320312 1.003906 6.0625 1.515625 C 5.582031 2.453125 4.671875 2.921875 3.328125 2.921875 C 2.585938 2.921875 1.960938 2.753906 1.453125 2.421875 C 0.953125 2.085938 0.671875 1.566406 0.609375 0.859375 L 1.78125 0.859375 C 1.84375 1.171875 1.957031 1.410156 2.125 1.578125 C 2.382812 1.828125 2.796875 1.953125 3.359375 1.953125 C 4.242188 1.953125 4.828125 1.640625 5.109375 1.015625 C 5.265625 0.648438 5.335938 -0.00390625 5.328125 -0.953125 C 5.097656 -0.609375 4.816406 -0.347656 4.484375 -0.171875 C 4.160156 -0.00390625 3.734375 0.078125 3.203125 0.078125 C 2.453125 0.078125 1.796875 -0.1875 1.234375 -0.71875 C 0.671875 -1.25 0.390625 -2.125 0.390625 -3.34375 C 0.390625 -4.5 0.671875 -5.398438 1.234375 -6.046875 C 1.804688 -6.703125 2.488281 -7.03125 3.28125 -7.03125 Z M 5.375 -3.484375 C 5.375 -4.335938 5.195312 -4.96875 4.84375 -5.375 C 4.488281 -5.789062 4.039062 -6 3.5 -6 C 2.6875 -6 2.128906 -5.617188 1.828125 -4.859375 C 1.660156 -4.441406 1.578125 -3.90625 1.578125 -3.25 C 1.578125 -2.46875 1.734375 -1.875 2.046875 -1.46875 C 2.367188 -1.0625 2.796875 -0.859375 3.328125 -0.859375 C 4.160156 -0.859375 4.75 -1.234375 5.09375 -1.984375 C 5.28125 -2.410156 5.375 -2.910156 5.375 -3.484375 Z M 3.421875 -7.078125 Z M 3.421875 -7.078125 "/>
</g>
<g id="glyph-3-14">
<path d="M 0.546875 -4.28125 L 3.78125 -4.28125 L 3.78125 -3.078125 L 0.546875 -3.078125 Z M 0.546875 -4.28125 "/>
</g>
<g id="glyph-3-15">
<path d="M 7.890625 -9.46875 L 7.890625 -8.34375 L 4.703125 -8.34375 L 4.703125 0 L 3.40625 0 L 3.40625 -8.34375 L 0.21875 -8.34375 L 0.21875 -9.46875 Z M 7.890625 -9.46875 "/>
</g>
<g id="glyph-3-16">
<path d="M 1.734375 -1.84375 C 1.734375 -1.5 1.851562 -1.226562 2.09375 -1.03125 C 2.34375 -0.84375 2.640625 -0.75 2.984375 -0.75 C 3.390625 -0.75 3.785156 -0.84375 4.171875 -1.03125 C 4.804688 -1.351562 5.125 -1.867188 5.125 -2.578125 L 5.125 -3.515625 C 4.988281 -3.421875 4.804688 -3.34375 4.578125 -3.28125 C 4.359375 -3.226562 4.140625 -3.1875 3.921875 -3.15625 L 3.21875 -3.0625 C 2.800781 -3.007812 2.488281 -2.921875 2.28125 -2.796875 C 1.914062 -2.597656 1.734375 -2.28125 1.734375 -1.84375 Z M 4.546875 -4.1875 C 4.816406 -4.21875 5 -4.328125 5.09375 -4.515625 C 5.132812 -4.617188 5.15625 -4.769531 5.15625 -4.96875 C 5.15625 -5.363281 5.015625 -5.648438 4.734375 -5.828125 C 4.453125 -6.003906 4.050781 -6.09375 3.53125 -6.09375 C 2.925781 -6.09375 2.5 -5.929688 2.25 -5.609375 C 2.101562 -5.421875 2.007812 -5.148438 1.96875 -4.796875 L 0.890625 -4.796875 C 0.910156 -5.648438 1.1875 -6.242188 1.71875 -6.578125 C 2.25 -6.910156 2.863281 -7.078125 3.5625 -7.078125 C 4.375 -7.078125 5.03125 -6.921875 5.53125 -6.609375 C 6.039062 -6.296875 6.296875 -5.8125 6.296875 -5.15625 L 6.296875 -1.1875 C 6.296875 -1.0625 6.316406 -0.960938 6.359375 -0.890625 C 6.410156 -0.816406 6.515625 -0.78125 6.671875 -0.78125 C 6.722656 -0.78125 6.78125 -0.785156 6.84375 -0.796875 C 6.914062 -0.804688 6.988281 -0.816406 7.0625 -0.828125 L 7.0625 0.03125 C 6.875 0.0820312 6.734375 0.113281 6.640625 0.125 C 6.546875 0.132812 6.421875 0.140625 6.265625 0.140625 C 5.859375 0.140625 5.566406 0 5.390625 -0.28125 C 5.296875 -0.425781 5.226562 -0.640625 5.1875 -0.921875 C 4.945312 -0.609375 4.601562 -0.335938 4.15625 -0.109375 C 3.71875 0.117188 3.234375 0.234375 2.703125 0.234375 C 2.066406 0.234375 1.546875 0.0390625 1.140625 -0.34375 C 0.734375 -0.738281 0.53125 -1.226562 0.53125 -1.8125 C 0.53125 -2.445312 0.726562 -2.941406 1.125 -3.296875 C 1.53125 -3.648438 2.054688 -3.867188 2.703125 -3.953125 Z M 3.59375 -7.078125 Z M 3.59375 -7.078125 "/>
</g>
<g id="glyph-3-17">
<path d="M 0.84375 -6.90625 L 2 -6.90625 L 2 -5.921875 C 2.269531 -6.265625 2.519531 -6.515625 2.75 -6.671875 C 3.125 -6.929688 3.554688 -7.0625 4.046875 -7.0625 C 4.597656 -7.0625 5.039062 -6.925781 5.375 -6.65625 C 5.5625 -6.5 5.734375 -6.269531 5.890625 -5.96875 C 6.148438 -6.34375 6.453125 -6.617188 6.796875 -6.796875 C 7.148438 -6.972656 7.539062 -7.0625 7.96875 -7.0625 C 8.90625 -7.0625 9.539062 -6.722656 9.875 -6.046875 C 10.050781 -5.691406 10.140625 -5.207031 10.140625 -4.59375 L 10.140625 0 L 8.9375 0 L 8.9375 -4.796875 C 8.9375 -5.253906 8.820312 -5.566406 8.59375 -5.734375 C 8.363281 -5.910156 8.082031 -6 7.75 -6 C 7.289062 -6 6.894531 -5.847656 6.5625 -5.546875 C 6.238281 -5.242188 6.078125 -4.734375 6.078125 -4.015625 L 6.078125 0 L 4.90625 0 L 4.90625 -4.5 C 4.90625 -4.96875 4.847656 -5.3125 4.734375 -5.53125 C 4.554688 -5.851562 4.226562 -6.015625 3.75 -6.015625 C 3.3125 -6.015625 2.910156 -5.84375 2.546875 -5.5 C 2.191406 -5.164062 2.015625 -4.550781 2.015625 -3.65625 L 2.015625 0 L 0.84375 0 Z M 0.84375 -6.90625 "/>
</g>
<g id="glyph-3-18">
<path d="M 3.71875 -7.0625 C 4.21875 -7.0625 4.695312 -6.945312 5.15625 -6.71875 C 5.613281 -6.488281 5.960938 -6.191406 6.203125 -5.828125 C 6.429688 -5.472656 6.585938 -5.066406 6.671875 -4.609375 C 6.734375 -4.285156 6.765625 -3.773438 6.765625 -3.078125 L 1.703125 -3.078125 C 1.722656 -2.378906 1.890625 -1.816406 2.203125 -1.390625 C 2.515625 -0.972656 2.992188 -0.765625 3.640625 -0.765625 C 4.242188 -0.765625 4.726562 -0.960938 5.09375 -1.359375 C 5.300781 -1.585938 5.445312 -1.859375 5.53125 -2.171875 L 6.671875 -2.171875 C 6.640625 -1.910156 6.539062 -1.625 6.375 -1.3125 C 6.207031 -1 6.015625 -0.742188 5.796875 -0.546875 C 5.453125 -0.203125 5.019531 0.0234375 4.5 0.140625 C 4.21875 0.210938 3.898438 0.25 3.546875 0.25 C 2.679688 0.25 1.953125 -0.0625 1.359375 -0.6875 C 0.765625 -1.3125 0.46875 -2.1875 0.46875 -3.3125 C 0.46875 -4.425781 0.765625 -5.328125 1.359375 -6.015625 C 1.960938 -6.710938 2.75 -7.0625 3.71875 -7.0625 Z M 5.578125 -4 C 5.523438 -4.5 5.414062 -4.898438 5.25 -5.203125 C 4.925781 -5.765625 4.394531 -6.046875 3.65625 -6.046875 C 3.125 -6.046875 2.675781 -5.851562 2.3125 -5.46875 C 1.945312 -5.082031 1.753906 -4.59375 1.734375 -4 Z M 3.609375 -7.078125 Z M 3.609375 -7.078125 "/>
</g>
<g id="glyph-3-19">
<path d="M 1.578125 -3.375 C 1.578125 -2.632812 1.734375 -2.015625 2.046875 -1.515625 C 2.367188 -1.015625 2.875 -0.765625 3.5625 -0.765625 C 4.101562 -0.765625 4.546875 -0.992188 4.890625 -1.453125 C 5.234375 -1.921875 5.40625 -2.585938 5.40625 -3.453125 C 5.40625 -4.316406 5.226562 -4.957031 4.875 -5.375 C 4.519531 -5.800781 4.078125 -6.015625 3.546875 -6.015625 C 2.960938 -6.015625 2.488281 -5.789062 2.125 -5.34375 C 1.757812 -4.894531 1.578125 -4.238281 1.578125 -3.375 Z M 3.328125 -7.03125 C 3.859375 -7.03125 4.300781 -6.914062 4.65625 -6.6875 C 4.863281 -6.5625 5.097656 -6.335938 5.359375 -6.015625 L 5.359375 -9.5 L 6.484375 -9.5 L 6.484375 0 L 5.4375 0 L 5.4375 -0.953125 C 5.164062 -0.535156 4.84375 -0.226562 4.46875 -0.03125 C 4.101562 0.15625 3.679688 0.25 3.203125 0.25 C 2.429688 0.25 1.765625 -0.0703125 1.203125 -0.71875 C 0.640625 -1.375 0.359375 -2.238281 0.359375 -3.3125 C 0.359375 -4.3125 0.613281 -5.179688 1.125 -5.921875 C 1.644531 -6.660156 2.378906 -7.03125 3.328125 -7.03125 Z M 3.328125 -7.03125 "/>
</g>
<g id="glyph-3-20">
<path d="M 0.828125 -9.46875 L 1.9375 -9.46875 L 1.9375 -3.96875 L 4.921875 -6.90625 L 6.40625 -6.90625 L 3.765625 -4.3125 L 6.546875 0 L 5.0625 0 L 2.90625 -3.484375 L 1.9375 -2.59375 L 1.9375 0 L 0.828125 0 Z M 0.828125 -9.46875 "/>
</g>
<g id="glyph-3-21">
<path d="M 0.96875 -9.46875 L 2.8125 -9.46875 L 5.53125 -1.46875 L 8.234375 -9.46875 L 10.046875 -9.46875 L 10.046875 0 L 8.828125 0 L 8.828125 -5.59375 C 8.828125 -5.78125 8.832031 -6.097656 8.84375 -6.546875 C 8.851562 -6.992188 8.859375 -7.472656 8.859375 -7.984375 L 6.15625 0 L 4.890625 0 L 2.171875 -7.984375 L 2.171875 -7.703125 C 2.171875 -7.460938 2.175781 -7.101562 2.1875 -6.625 C 2.195312 -6.15625 2.203125 -5.8125 2.203125 -5.59375 L 2.203125 0 L 0.96875 0 Z M 0.96875 -9.46875 "/>
</g>
</g>
<clipPath id="clip-0">
<path clip-rule="nonzero" d="M 29.152344 160 L 65.292969 160 L 65.292969 161 L 29.152344 161 Z M 29.152344 160 "/>
</clipPath>
<clipPath id="clip-1">
<path clip-rule="nonzero" d="M 29.152344 128 L 65.292969 128 L 65.292969 129 L 29.152344 129 Z M 29.152344 128 "/>
</clipPath>
<clipPath id="clip-2">
<path clip-rule="nonzero" d="M 29.152344 95 L 65.292969 95 L 65.292969 97 L 29.152344 97 Z M 29.152344 95 "/>
</clipPath>
<clipPath id="clip-3">
<path clip-rule="nonzero" d="M 29.152344 63 L 65.292969 63 L 65.292969 65 L 29.152344 65 Z M 29.152344 63 "/>
</clipPath>
<clipPath id="clip-4">
<path clip-rule="nonzero" d="M 37 41.726562 L 38 41.726562 L 38 182.851562 L 37 182.851562 Z M 37 41.726562 "/>
</clipPath>
<clipPath id="clip-5">
<path clip-rule="nonzero" d="M 48 41.726562 L 49 41.726562 L 49 182.851562 L 48 182.851562 Z M 48 41.726562 "/>
</clipPath>
<clipPath id="clip-6">
<path clip-rule="nonzero" d="M 58 41.726562 L 60 41.726562 L 60 182.851562 L 58 182.851562 Z M 58 41.726562 "/>
</clipPath>
<clipPath id="clip-7">
<path clip-rule="nonzero" d="M 29.152344 175 L 65.292969 175 L 65.292969 177 L 29.152344 177 Z M 29.152344 175 "/>
</clipPath>
<clipPath id="clip-8">
<path clip-rule="nonzero" d="M 29.152344 143 L 65.292969 143 L 65.292969 145 L 29.152344 145 Z M 29.152344 143 "/>
</clipPath>
<clipPath id="clip-9">
<path clip-rule="nonzero" d="M 29.152344 111 L 65.292969 111 L 65.292969 113 L 29.152344 113 Z M 29.152344 111 "/>
</clipPath>
<clipPath id="clip-10">
<path clip-rule="nonzero" d="M 29.152344 79 L 65.292969 79 L 65.292969 81 L 29.152344 81 Z M 29.152344 79 "/>
</clipPath>
<clipPath id="clip-11">
<path clip-rule="nonzero" d="M 29.152344 47 L 65.292969 47 L 65.292969 49 L 29.152344 49 Z M 29.152344 47 "/>
</clipPath>
<clipPath id="clip-12">
<path clip-rule="nonzero" d="M 31 41.726562 L 33 41.726562 L 33 182.851562 L 31 182.851562 Z M 31 41.726562 "/>
</clipPath>
<clipPath id="clip-13">
<path clip-rule="nonzero" d="M 42 41.726562 L 44 41.726562 L 44 182.851562 L 42 182.851562 Z M 42 41.726562 "/>
</clipPath>
<clipPath id="clip-14">
<path clip-rule="nonzero" d="M 53 41.726562 L 55 41.726562 L 55 182.851562 L 53 182.851562 Z M 53 41.726562 "/>
</clipPath>
<clipPath id="clip-15">
<path clip-rule="nonzero" d="M 64 41.726562 L 65.292969 41.726562 L 65.292969 182.851562 L 64 182.851562 Z M 64 41.726562 "/>
</clipPath>
<clipPath id="clip-16">
<path clip-rule="nonzero" d="M 85.703125 162 L 121.84375 162 L 121.84375 164 L 85.703125 164 Z M 85.703125 162 "/>
</clipPath>
<clipPath id="clip-17">
<path clip-rule="nonzero" d="M 85.703125 135 L 121.84375 135 L 121.84375 136 L 85.703125 136 Z M 85.703125 135 "/>
</clipPath>
<clipPath id="clip-18">
<path clip-rule="nonzero" d="M 85.703125 107 L 121.84375 107 L 121.84375 109 L 85.703125 109 Z M 85.703125 107 "/>
</clipPath>
<clipPath id="clip-19">
<path clip-rule="nonzero" d="M 85.703125 80 L 121.84375 80 L 121.84375 82 L 85.703125 82 Z M 85.703125 80 "/>
</clipPath>
<clipPath id="clip-20">
<path clip-rule="nonzero" d="M 85.703125 53 L 121.84375 53 L 121.84375 54 L 85.703125 54 Z M 85.703125 53 "/>
</clipPath>
<clipPath id="clip-21">
<path clip-rule="nonzero" d="M 93 41.726562 L 95 41.726562 L 95 182.851562 L 93 182.851562 Z M 93 41.726562 "/>
</clipPath>
<clipPath id="clip-22">
<path clip-rule="nonzero" d="M 104 41.726562 L 106 41.726562 L 106 182.851562 L 104 182.851562 Z M 104 41.726562 "/>
</clipPath>
<clipPath id="clip-23">
<path clip-rule="nonzero" d="M 115 41.726562 L 117 41.726562 L 117 182.851562 L 115 182.851562 Z M 115 41.726562 "/>
</clipPath>
<clipPath id="clip-24">
<path clip-rule="nonzero" d="M 85.703125 175 L 121.84375 175 L 121.84375 177 L 85.703125 177 Z M 85.703125 175 "/>
</clipPath>
<clipPath id="clip-25">
<path clip-rule="nonzero" d="M 85.703125 148 L 121.84375 148 L 121.84375 150 L 85.703125 150 Z M 85.703125 148 "/>
</clipPath>
<clipPath id="clip-26">
<path clip-rule="nonzero" d="M 85.703125 121 L 121.84375 121 L 121.84375 123 L 85.703125 123 Z M 85.703125 121 "/>
</clipPath>
<clipPath id="clip-27">
<path clip-rule="nonzero" d="M 85.703125 94 L 121.84375 94 L 121.84375 96 L 85.703125 96 Z M 85.703125 94 "/>
</clipPath>
<clipPath id="clip-28">
<path clip-rule="nonzero" d="M 85.703125 66 L 121.84375 66 L 121.84375 68 L 85.703125 68 Z M 85.703125 66 "/>
</clipPath>
<clipPath id="clip-29">
<path clip-rule="nonzero" d="M 88 41.726562 L 90 41.726562 L 90 182.851562 L 88 182.851562 Z M 88 41.726562 "/>
</clipPath>
<clipPath id="clip-30">
<path clip-rule="nonzero" d="M 98 41.726562 L 101 41.726562 L 101 182.851562 L 98 182.851562 Z M 98 41.726562 "/>
</clipPath>
<clipPath id="clip-31">
<path clip-rule="nonzero" d="M 109 41.726562 L 111 41.726562 L 111 182.851562 L 109 182.851562 Z M 109 41.726562 "/>
</clipPath>
<clipPath id="clip-32">
<path clip-rule="nonzero" d="M 120 41.726562 L 121.84375 41.726562 L 121.84375 182.851562 L 120 182.851562 Z M 120 41.726562 "/>
</clipPath>
<clipPath id="clip-33">
<path clip-rule="nonzero" d="M 29.152344 29 L 65.292969 29 L 65.292969 37 L 29.152344 37 Z M 29.152344 29 "/>
</clipPath>
</defs>
<rect x="-21.6" y="-21.6" width="259.2" height="259.2" fill="rgb(100%, 100%, 100%)" fill-opacity="1"/>
<rect x="-21.6" y="-21.6" width="259.2" height="259.2" fill="rgb(100%, 100%, 100%)" fill-opacity="1"/>
<g clip-path="url(#clip-0)">
<path fill="none" stroke-width="0.533489" stroke-linecap="butt" stroke-linejoin="round" stroke="rgb(92.156863%, 92.156863%, 92.156863%)" stroke-opacity="1" stroke-miterlimit="10" d="M 29.152344 160.398438 L 65.292969 160.398438 "/>
</g>
<g clip-path="url(#clip-1)">
<path fill="none" stroke-width="0.533489" stroke-linecap="butt" stroke-linejoin="round" stroke="rgb(92.156863%, 92.156863%, 92.156863%)" stroke-opacity="1" stroke-miterlimit="10" d="M 29.152344 128.324219 L 65.292969 128.324219 "/>
</g>
<g clip-path="url(#clip-2)">
<path fill="none" stroke-width="0.533489" stroke-linecap="butt" stroke-linejoin="round" stroke="rgb(92.156863%, 92.156863%, 92.156863%)" stroke-opacity="1" stroke-miterlimit="10" d="M 29.152344 96.25 L 65.292969 96.25 "/>
</g>
<g clip-path="url(#clip-3)">
<path fill="none" stroke-width="0.533489" stroke-linecap="butt" stroke-linejoin="round" stroke="rgb(92.156863%, 92.156863%, 92.156863%)" stroke-opacity="1" stroke-miterlimit="10" d="M 29.152344 64.175781 L 65.292969 64.175781 "/>
</g>
<g clip-path="url(#clip-4)">
<path fill="none" stroke-width="0.533489" stroke-linecap="butt" stroke-linejoin="round" stroke="rgb(92.156863%, 92.156863%, 92.156863%)" stroke-opacity="1" stroke-miterlimit="10" d="M 37.53125 182.847656 L 37.53125 41.726562 "/>
</g>
<g clip-path="url(#clip-5)">
<path fill="none" stroke-width="0.533489" stroke-linecap="butt" stroke-linejoin="round" stroke="rgb(92.156863%, 92.156863%, 92.156863%)" stroke-opacity="1" stroke-miterlimit="10" d="M 48.378906 182.847656 L 48.378906 41.726562 "/>
</g>
<g clip-path="url(#clip-6)">
<path fill="none" stroke-width="0.533489" stroke-linecap="butt" stroke-linejoin="round" stroke="rgb(92.156863%, 92.156863%, 92.156863%)" stroke-opacity="1" stroke-miterlimit="10" d="M 59.222656 182.847656 L 59.222656 41.726562 "/>
</g>
<g clip-path="url(#clip-7)">
<path fill="none" stroke-width="1.066978" stroke-linecap="butt" stroke-linejoin="round" stroke="rgb(92.156863%, 92.156863%, 92.156863%)" stroke-opacity="1" stroke-miterlimit="10" d="M 29.152344 176.433594 L 65.292969 176.433594 "/>
</g>
<g clip-path="url(#clip-8)">
<path fill="none" stroke-width="1.066978" stroke-linecap="butt" stroke-linejoin="round" stroke="rgb(92.156863%, 92.156863%, 92.156863%)" stroke-opacity="1" stroke-miterlimit="10" d="M 29.152344 144.359375 L 65.292969 144.359375 "/>
</g>
<g clip-path="url(#clip-9)">
<path fill="none" stroke-width="1.066978" stroke-linecap="butt" stroke-linejoin="round" stroke="rgb(92.156863%, 92.156863%, 92.156863%)" stroke-opacity="1" stroke-miterlimit="10" d="M 29.152344 112.289062 L 65.292969 112.289062 "/>
</g>
<g clip-path="url(#clip-10)">
<path fill="none" stroke-width="1.066978" stroke-linecap="butt" stroke-linejoin="round" stroke="rgb(92.156863%, 92.156863%, 92.156863%)" stroke-opacity="1" stroke-miterlimit="10" d="M 29.152344 80.214844 L 65.292969 80.214844 "/>
</g>
<g clip-path="url(#clip-11)">
<path fill="none" stroke-width="1.066978" stroke-linecap="butt" stroke-linejoin="round" stroke="rgb(92.156863%, 92.156863%, 92.156863%)" stroke-opacity="1" stroke-miterlimit="10" d="M 29.152344 48.140625 L 65.292969 48.140625 "/>
</g>
<g clip-path="url(#clip-12)">
<path fill="none" stroke-width="1.066978" stroke-linecap="butt" stroke-linejoin="round" stroke="rgb(92.156863%, 92.156863%, 92.156863%)" stroke-opacity="1" stroke-miterlimit="10" d="M 32.109375 182.847656 L 32.109375 41.726562 "/>
</g>
<g clip-path="url(#clip-13)">
<path fill="none" stroke-width="1.066978" stroke-linecap="butt" stroke-linejoin="round" stroke="rgb(92.156863%, 92.156863%, 92.156863%)" stroke-opacity="1" stroke-miterlimit="10" d="M 42.957031 182.847656 L 42.957031 41.726562 "/>
</g>
<g clip-path="url(#clip-14)">
<path fill="none" stroke-width="1.066978" stroke-linecap="butt" stroke-linejoin="round" stroke="rgb(92.156863%, 92.156863%, 92.156863%)" stroke-opacity="1" stroke-miterlimit="10" d="M 53.800781 182.847656 L 53.800781 41.726562 "/>
</g>
<g clip-path="url(#clip-15)">
<path fill="none" stroke-width="1.066978" stroke-linecap="butt" stroke-linejoin="round" stroke="rgb(92.156863%, 92.156863%, 92.156863%)" stroke-opacity="1" stroke-miterlimit="10" d="M 64.644531 182.847656 L 64.644531 41.726562 "/>
</g>
<path fill-rule="nonzero" fill="rgb(97.254902%, 46.27451%, 42.745098%)" fill-opacity="0.698039" d="M 55.433594 176.433594 L 57.078125 176.433594 L 57.078125 112.285156 L 55.433594 112.285156 Z M 55.433594 176.433594 "/>
<path fill-rule="nonzero" fill="rgb(97.254902%, 46.27451%, 42.745098%)" fill-opacity="0.698039" d="M 57.078125 176.433594 L 58.722656 176.433594 L 58.722656 48.140625 L 57.078125 48.140625 Z M 57.078125 176.433594 "/>
<path fill-rule="nonzero" fill="rgb(97.254902%, 46.27451%, 42.745098%)" fill-opacity="0.698039" d="M 58.71875 176.433594 L 60.363281 176.433594 L 60.363281 112.285156 L 58.71875 112.285156 Z M 58.71875 176.433594 "/>
<path fill-rule="nonzero" fill="rgb(97.254902%, 46.27451%, 42.745098%)" fill-opacity="0.698039" d="M 60.363281 176.433594 L 62.007812 176.433594 L 62.007812 144.359375 L 60.363281 144.359375 Z M 60.363281 176.433594 "/>
<path fill-rule="nonzero" fill="rgb(97.254902%, 46.27451%, 42.745098%)" fill-opacity="0.698039" d="M 62.007812 176.433594 L 63.652344 176.433594 L 63.652344 144.359375 L 62.007812 144.359375 Z M 62.007812 176.433594 "/>
<g clip-path="url(#clip-16)">
<path fill="none" stroke-width="0.533489" stroke-linecap="butt" stroke-linejoin="round" stroke="rgb(92.156863%, 92.156863%, 92.156863%)" stroke-opacity="1" stroke-miterlimit="10" d="M 85.703125 162.785156 L 121.84375 162.785156 "/>
</g>
<g clip-path="url(#clip-17)">
<path fill="none" stroke-width="0.533489" stroke-linecap="butt" stroke-linejoin="round" stroke="rgb(92.156863%, 92.156863%, 92.156863%)" stroke-opacity="1" stroke-miterlimit="10" d="M 85.703125 135.488281 L 121.84375 135.488281 "/>
</g>
<g clip-path="url(#clip-18)">
<path fill="none" stroke-width="0.533489" stroke-linecap="butt" stroke-linejoin="round" stroke="rgb(92.156863%, 92.156863%, 92.156863%)" stroke-opacity="1" stroke-miterlimit="10" d="M 85.703125 108.191406 L 121.84375 108.191406 "/>
</g>
<g clip-path="url(#clip-19)">
<path fill="none" stroke-width="0.533489" stroke-linecap="butt" stroke-linejoin="round" stroke="rgb(92.156863%, 92.156863%, 92.156863%)" stroke-opacity="1" stroke-miterlimit="10" d="M 85.703125 80.898438 L 121.84375 80.898438 "/>
</g>
<g clip-path="url(#clip-20)">
<path fill="none" stroke-width="0.533489" stroke-linecap="butt" stroke-linejoin="round" stroke="rgb(92.156863%, 92.156863%, 92.156863%)" stroke-opacity="1" stroke-miterlimit="10" d="M 85.703125 53.601562 L 121.84375 53.601562 "/>
</g>
<g clip-path="url(#clip-21)">
<path fill="none" stroke-width="0.533489" stroke-linecap="butt" stroke-linejoin="round" stroke="rgb(92.156863%, 92.156863%, 92.156863%)" stroke-opacity="1" stroke-miterlimit="10" d="M 94.085938 182.847656 L 94.085938 41.726562 "/>
</g>
<g clip-path="url(#clip-22)">
<path fill="none" stroke-width="0.533489" stroke-linecap="butt" stroke-linejoin="round" stroke="rgb(92.156863%, 92.156863%, 92.156863%)" stroke-opacity="1" stroke-miterlimit="10" d="M 104.929688 182.847656 L 104.929688 41.726562 "/>
</g>
<g clip-path="url(#clip-23)">
<path fill="none" stroke-width="0.533489" stroke-linecap="butt" stroke-linejoin="round" stroke="rgb(92.156863%, 92.156863%, 92.156863%)" stroke-opacity="1" stroke-miterlimit="10" d="M 115.773438 182.847656 L 115.773438 41.726562 "/>
</g>
<g clip-path="url(#clip-24)">
<path fill="none" stroke-width="1.066978" stroke-linecap="butt" stroke-linejoin="round" stroke="rgb(92.156863%, 92.156863%, 92.156863%)" stroke-opacity="1" stroke-miterlimit="10" d="M 85.703125 176.433594 L 121.84375 176.433594 "/>
</g>
<g clip-path="url(#clip-25)">
<path fill="none" stroke-width="1.066978" stroke-linecap="butt" stroke-linejoin="round" stroke="rgb(92.156863%, 92.156863%, 92.156863%)" stroke-opacity="1" stroke-miterlimit="10" d="M 85.703125 149.136719 L 121.84375 149.136719 "/>
</g>
<g clip-path="url(#clip-26)">
<path fill="none" stroke-width="1.066978" stroke-linecap="butt" stroke-linejoin="round" stroke="rgb(92.156863%, 92.156863%, 92.156863%)" stroke-opacity="1" stroke-miterlimit="10" d="M 85.703125 121.839844 L 121.84375 121.839844 "/>
</g>
<g clip-path="url(#clip-27)">
<path fill="none" stroke-width="1.066978" stroke-linecap="butt" stroke-linejoin="round" stroke="rgb(92.156863%, 92.156863%, 92.156863%)" stroke-opacity="1" stroke-miterlimit="10" d="M 85.703125 94.542969 L 121.84375 94.542969 "/>
</g>
<g clip-path="url(#clip-28)">
<path fill="none" stroke-width="1.066978" stroke-linecap="butt" stroke-linejoin="round" stroke="rgb(92.156863%, 92.156863%, 92.156863%)" stroke-opacity="1" stroke-miterlimit="10" d="M 85.703125 67.25 L 121.84375 67.25 "/>
</g>
<g clip-path="url(#clip-29)">
<path fill="none" stroke-width="1.066978" stroke-linecap="butt" stroke-linejoin="round" stroke="rgb(92.156863%, 92.156863%, 92.156863%)" stroke-opacity="1" stroke-miterlimit="10" d="M 88.664062 182.847656 L 88.664062 41.726562 "/>
</g>
<g clip-path="url(#clip-30)">
<path fill="none" stroke-width="1.066978" stroke-linecap="butt" stroke-linejoin="round" stroke="rgb(92.156863%, 92.156863%, 92.156863%)" stroke-opacity="1" stroke-miterlimit="10" d="M 99.507812 182.847656 L 99.507812 41.726562 "/>
</g>
<g clip-path="url(#clip-31)">
<path fill="none" stroke-width="1.066978" stroke-linecap="butt" stroke-linejoin="round" stroke="rgb(92.156863%, 92.156863%, 92.156863%)" stroke-opacity="1" stroke-miterlimit="10" d="M 110.351562 182.847656 L 110.351562 41.726562 "/>
</g>
<g clip-path="url(#clip-32)">
<path fill="none" stroke-width="1.066978" stroke-linecap="butt" stroke-linejoin="round" stroke="rgb(92.156863%, 92.156863%, 92.156863%)" stroke-opacity="1" stroke-miterlimit="10" d="M 121.195312 182.847656 L 121.195312 41.726562 "/>
</g>
<path fill-rule="nonzero" fill="rgb(0%, 74.901961%, 76.862745%)" fill-opacity="0.698039" d="M 87.34375 176.433594 L 88.988281 176.433594 L 88.988281 170.972656 L 87.34375 170.972656 Z M 87.34375 176.433594 "/>
<path fill-rule="nonzero" fill="rgb(0%, 74.901961%, 76.862745%)" fill-opacity="0.698039" d="M 88.988281 176.433594 L 90.632812 176.433594 L 90.632812 170.972656 L 88.988281 170.972656 Z M 88.988281 176.433594 "/>
<path fill-rule="nonzero" fill="rgb(0%, 74.901961%, 76.862745%)" fill-opacity="0.698039" d="M 90.628906 176.433594 L 92.273438 176.433594 L 92.273438 160.054688 L 90.628906 160.054688 Z M 90.628906 176.433594 "/>
<path fill-rule="nonzero" fill="rgb(0%, 74.901961%, 76.862745%)" fill-opacity="0.698039" d="M 92.273438 176.433594 L 93.917969 176.433594 L 93.917969 165.515625 L 92.273438 165.515625 Z M 92.273438 176.433594 "/>
<path fill-rule="nonzero" fill="rgb(0%, 74.901961%, 76.862745%)" fill-opacity="0.698039" d="M 93.917969 176.433594 L 95.5625 176.433594 L 95.5625 173.703125 L 93.917969 173.703125 Z M 93.917969 176.433594 "/>
<path fill-rule="nonzero" fill="rgb(0%, 74.901961%, 76.862745%)" fill-opacity="0.698039" d="M 95.558594 176.433594 L 97.203125 176.433594 L 97.203125 132.757812 L 95.558594 132.757812 Z M 95.558594 176.433594 "/>
<path fill-rule="nonzero" fill="rgb(0%, 74.901961%, 76.862745%)" fill-opacity="0.698039" d="M 97.203125 176.433594 L 98.847656 176.433594 L 98.847656 83.625 L 97.203125 83.625 Z M 97.203125 176.433594 "/>
<path fill-rule="nonzero" fill="rgb(0%, 74.901961%, 76.862745%)" fill-opacity="0.698039" d="M 98.84375 176.433594 L 100.488281 176.433594 L 100.488281 80.894531 L 98.84375 80.894531 Z M 98.84375 176.433594 "/>
<path fill-rule="nonzero" fill="rgb(0%, 74.901961%, 76.862745%)" fill-opacity="0.698039" d="M 100.488281 176.433594 L 102.132812 176.433594 L 102.132812 121.839844 L 100.488281 121.839844 Z M 100.488281 176.433594 "/>
<path fill-rule="nonzero" fill="rgb(0%, 74.901961%, 76.862745%)" fill-opacity="0.698039" d="M 102.128906 176.433594 L 103.773438 176.433594 L 103.773438 110.921875 L 102.128906 110.921875 Z M 102.128906 176.433594 "/>
<path fill-rule="nonzero" fill="rgb(0%, 74.901961%, 76.862745%)" fill-opacity="0.698039" d="M 103.773438 176.433594 L 105.417969 176.433594 L 105.417969 121.839844 L 103.773438 121.839844 Z M 103.773438 176.433594 "/>
<path fill-rule="nonzero" fill="rgb(0%, 74.901961%, 76.862745%)" fill-opacity="0.698039" d="M 105.414062 176.433594 L 107.058594 176.433594 L 107.058594 89.085938 L 105.414062 89.085938 Z M 105.414062 176.433594 "/>
<path fill-rule="nonzero" fill="rgb(0%, 74.901961%, 76.862745%)" fill-opacity="0.698039" d="M 107.058594 176.433594 L 108.703125 176.433594 L 108.703125 119.109375 L 107.058594 119.109375 Z M 107.058594 176.433594 "/>
<path fill-rule="nonzero" fill="rgb(0%, 74.901961%, 76.862745%)" fill-opacity="0.698039" d="M 108.699219 176.433594 L 110.34375 176.433594 L 110.34375 89.085938 L 108.699219 89.085938 Z M 108.699219 176.433594 "/>
<path fill-rule="nonzero" fill="rgb(0%, 74.901961%, 76.862745%)" fill-opacity="0.698039" d="M 110.34375 176.433594 L 111.988281 176.433594 L 111.988281 48.140625 L 110.34375 48.140625 Z M 110.34375 176.433594 "/>
<path fill-rule="nonzero" fill="rgb(0%, 74.901961%, 76.862745%)" fill-opacity="0.698039" d="M 111.988281 176.433594 L 113.632812 176.433594 L 113.632812 113.652344 L 111.988281 113.652344 Z M 111.988281 176.433594 "/>
<path fill-rule="nonzero" fill="rgb(0%, 74.901961%, 76.862745%)" fill-opacity="0.698039" d="M 113.628906 176.433594 L 115.273438 176.433594 L 115.273438 168.246094 L 113.628906 168.246094 Z M 113.628906 176.433594 "/>
<g clip-path="url(#clip-33)">
<g fill="rgb(10.196078%, 10.196078%, 10.196078%)" fill-opacity="1">
<use xlink:href="#glyph-0-1" x="25.222656" y="36.120117"/>
<use xlink:href="#glyph-0-2" x="27.222656" y="36.120117"/>
<use xlink:href="#glyph-0-3" x="31.222656" y="36.120117"/>
<use xlink:href="#glyph-0-4" x="33.222656" y="36.120117"/>
<use xlink:href="#glyph-0-5" x="38.222656" y="36.120117"/>
<use xlink:href="#glyph-0-6" x="43.222656" y="36.120117"/>
<use xlink:href="#glyph-0-7" x="48.222656" y="36.120117"/>
<use xlink:href="#glyph-0-8" x="50.222656" y="36.120117"/>
<use xlink:href="#glyph-0-4" x="55.222656" y="36.120117"/>
<use xlink:href="#glyph-0-9" x="60.222656" y="36.120117"/>
<use xlink:href="#glyph-0-10" x="64.222656" y="36.120117"/>
</g>
</g>
<g fill="rgb(10.196078%, 10.196078%, 10.196078%)" fill-opacity="1">
<use xlink:href="#glyph-0-11" x="91.773438" y="36.120117"/>
<use xlink:href="#glyph-0-12" x="97.773438" y="36.120117"/>
<use xlink:href="#glyph-0-7" x="103.773438" y="36.120117"/>
<use xlink:href="#glyph-0-13" x="105.773438" y="36.120117"/>
<use xlink:href="#glyph-0-14" x="110.773438" y="36.120117"/>
</g>
<g fill="rgb(30.196078%, 30.196078%, 30.196078%)" fill-opacity="1">
<use xlink:href="#glyph-0-13" x="29.609375" y="194.557617"/>
</g>
<g fill="rgb(30.196078%, 30.196078%, 30.196078%)" fill-opacity="1">
<use xlink:href="#glyph-0-14" x="40.457031" y="194.557617"/>
</g>
<g fill="rgb(30.196078%, 30.196078%, 30.196078%)" fill-opacity="1">
<use xlink:href="#glyph-0-15" x="51.300781" y="194.557617"/>
</g>
<g fill="rgb(30.196078%, 30.196078%, 30.196078%)" fill-opacity="1">
<use xlink:href="#glyph-0-16" x="62.144531" y="194.557617"/>
</g>
<g fill="rgb(30.196078%, 30.196078%, 30.196078%)" fill-opacity="1">
<use xlink:href="#glyph-0-13" x="86.164062" y="194.557617"/>
</g>
<g fill="rgb(30.196078%, 30.196078%, 30.196078%)" fill-opacity="1">
<use xlink:href="#glyph-0-14" x="97.007812" y="194.557617"/>
</g>
<g fill="rgb(30.196078%, 30.196078%, 30.196078%)" fill-opacity="1">
<use xlink:href="#glyph-0-15" x="107.851562" y="194.557617"/>
</g>
<g fill="rgb(30.196078%, 30.196078%, 30.196078%)" fill-opacity="1">
<use xlink:href="#glyph-0-16" x="118.695312" y="194.557617"/>
</g>
<g fill="rgb(30.196078%, 30.196078%, 30.196078%)" fill-opacity="1">
<use xlink:href="#glyph-0-17" x="75.769531" y="179.709961"/>
</g>
<g fill="rgb(30.196078%, 30.196078%, 30.196078%)" fill-opacity="1">
<use xlink:href="#glyph-0-13" x="70.769531" y="152.413086"/>
<use xlink:href="#glyph-0-17" x="75.769531" y="152.413086"/>
</g>
<g fill="rgb(30.196078%, 30.196078%, 30.196078%)" fill-opacity="1">
<use xlink:href="#glyph-0-14" x="70.769531" y="125.116211"/>
<use xlink:href="#glyph-0-17" x="75.769531" y="125.116211"/>
</g>
<g fill="rgb(30.196078%, 30.196078%, 30.196078%)" fill-opacity="1">
<use xlink:href="#glyph-0-15" x="70.769531" y="97.819336"/>
<use xlink:href="#glyph-0-17" x="75.769531" y="97.819336"/>
</g>
<g fill="rgb(30.196078%, 30.196078%, 30.196078%)" fill-opacity="1">
<use xlink:href="#glyph-0-16" x="70.769531" y="70.526367"/>
<use xlink:href="#glyph-0-17" x="75.769531" y="70.526367"/>
</g>
<g fill="rgb(30.196078%, 30.196078%, 30.196078%)" fill-opacity="1">
<use xlink:href="#glyph-0-17" x="19.21875" y="179.709961"/>
</g>
<g fill="rgb(30.196078%, 30.196078%, 30.196078%)" fill-opacity="1">
<use xlink:href="#glyph-0-13" x="19.21875" y="147.635742"/>
</g>
<g fill="rgb(30.196078%, 30.196078%, 30.196078%)" fill-opacity="1">
<use xlink:href="#glyph-0-14" x="19.21875" y="115.56543"/>
</g>
<g fill="rgb(30.196078%, 30.196078%, 30.196078%)" fill-opacity="1">
<use xlink:href="#glyph-0-15" x="19.21875" y="83.491211"/>
</g>
<g fill="rgb(30.196078%, 30.196078%, 30.196078%)" fill-opacity="1">
<use xlink:href="#glyph-0-16" x="19.21875" y="51.416992"/>
</g>
<g fill="rgb(0%, 0%, 0%)" fill-opacity="1">
<use xlink:href="#glyph-1-1" x="45.496094" y="206.990234"/>
<use xlink:href="#glyph-1-2" x="51.496094" y="206.990234"/>
<use xlink:href="#glyph-1-3" x="57.496094" y="206.990234"/>
<use xlink:href="#glyph-1-4" x="63.496094" y="206.990234"/>
<use xlink:href="#glyph-1-5" x="69.496094" y="206.990234"/>
<use xlink:href="#glyph-1-6" x="75.496094" y="206.990234"/>
<use xlink:href="#glyph-1-7" x="78.496094" y="206.990234"/>
<use xlink:href="#glyph-1-8" x="87.496094" y="206.990234"/>
<use xlink:href="#glyph-1-9" x="93.496094" y="206.990234"/>
<use xlink:href="#glyph-1-9" x="99.496094" y="206.990234"/>
</g>
<g fill="rgb(0%, 0%, 0%)" fill-opacity="1">
<use xlink:href="#glyph-2-1" x="12.951172" y="126.789062"/>
<use xlink:href="#glyph-2-2" x="12.951172" y="118.789062"/>
<use xlink:href="#glyph-2-3" x="12.951172" y="112.789062"/>
<use xlink:href="#glyph-2-4" x="12.951172" y="106.789062"/>
<use xlink:href="#glyph-2-5" x="12.951172" y="100.789062"/>
</g>
<g fill="rgb(0%, 0%, 0%)" fill-opacity="1">
<use xlink:href="#glyph-1-10" x="138.28125" y="95.740234"/>
<use xlink:href="#glyph-1-8" x="140.28125" y="95.740234"/>
<use xlink:href="#glyph-1-11" x="146.28125" y="95.740234"/>
<use xlink:href="#glyph-1-12" x="152.28125" y="95.740234"/>
</g>
<path fill-rule="nonzero" fill="rgb(97.254902%, 46.27451%, 42.745098%)" fill-opacity="0.698039" d="M 138.992188 119.820312 L 154.855469 119.820312 L 154.855469 103.957031 L 138.992188 103.957031 Z M 138.992188 119.820312 "/>
<path fill-rule="nonzero" fill="rgb(0%, 74.901961%, 76.862745%)" fill-opacity="0.698039" d="M 138.992188 137.097656 L 154.855469 137.097656 L 154.855469 121.234375 L 138.992188 121.234375 Z M 138.992188 137.097656 "/>
<g fill="rgb(0%, 0%, 0%)" fill-opacity="1">
<use xlink:href="#glyph-0-1" x="161.042969" y="115.163086"/>
<use xlink:href="#glyph-0-2" x="163.042969" y="115.163086"/>
<use xlink:href="#glyph-0-3" x="167.042969" y="115.163086"/>
<use xlink:href="#glyph-0-4" x="169.042969" y="115.163086"/>
<use xlink:href="#glyph-0-5" x="174.042969" y="115.163086"/>
<use xlink:href="#glyph-0-6" x="179.042969" y="115.163086"/>
<use xlink:href="#glyph-0-7" x="184.042969" y="115.163086"/>
<use xlink:href="#glyph-0-8" x="186.042969" y="115.163086"/>
<use xlink:href="#glyph-0-4" x="191.042969" y="115.163086"/>
<use xlink:href="#glyph-0-9" x="196.042969" y="115.163086"/>
<use xlink:href="#glyph-0-10" x="200.042969" y="115.163086"/>
</g>
<g fill="rgb(0%, 0%, 0%)" fill-opacity="1">
<use xlink:href="#glyph-0-11" x="161.042969" y="132.444336"/>
<use xlink:href="#glyph-0-12" x="167.042969" y="132.444336"/>
<use xlink:href="#glyph-0-7" x="173.042969" y="132.444336"/>
<use xlink:href="#glyph-0-13" x="175.042969" y="132.444336"/>
<use xlink:href="#glyph-0-14" x="180.042969" y="132.444336"/>
</g>
<g fill="rgb(0%, 0%, 0%)" fill-opacity="1">
<use xlink:href="#glyph-3-1" x="29.152344" y="14.644531"/>
<use xlink:href="#glyph-3-2" x="39.152344" y="14.644531"/>
<use xlink:href="#glyph-3-3" x="42.152344" y="14.644531"/>
<use xlink:href="#glyph-3-4" x="49.152344" y="14.644531"/>
<use xlink:href="#glyph-3-5" x="53.152344" y="14.644531"/>
<use xlink:href="#glyph-3-2" x="57.152344" y="14.644531"/>
<use xlink:href="#glyph-3-6" x="60.152344" y="14.644531"/>
<use xlink:href="#glyph-3-7" x="67.152344" y="14.644531"/>
<use xlink:href="#glyph-3-4" x="74.152344" y="14.644531"/>
<use xlink:href="#glyph-3-2" x="78.152344" y="14.644531"/>
<use xlink:href="#glyph-3-8" x="81.152344" y="14.644531"/>
<use xlink:href="#glyph-3-9" x="88.152344" y="14.644531"/>
<use xlink:href="#glyph-3-10" x="95.152344" y="14.644531"/>
<use xlink:href="#glyph-3-8" x="99.152344" y="14.644531"/>
<use xlink:href="#glyph-3-11" x="106.152344" y="14.644531"/>
<use xlink:href="#glyph-3-10" x="110.152344" y="14.644531"/>
<use xlink:href="#glyph-3-12" x="114.152344" y="14.644531"/>
<use xlink:href="#glyph-3-8" x="121.152344" y="14.644531"/>
<use xlink:href="#glyph-3-13" x="128.152344" y="14.644531"/>
<use xlink:href="#glyph-3-14" x="135.152344" y="14.644531"/>
<use xlink:href="#glyph-3-15" x="139.152344" y="14.644531"/>
<use xlink:href="#glyph-3-5" x="147.152344" y="14.644531"/>
<use xlink:href="#glyph-3-16" x="151.152344" y="14.644531"/>
<use xlink:href="#glyph-3-9" x="158.152344" y="14.644531"/>
<use xlink:href="#glyph-3-3" x="165.152344" y="14.644531"/>
<use xlink:href="#glyph-3-11" x="172.152344" y="14.644531"/>
<use xlink:href="#glyph-3-8" x="176.152344" y="14.644531"/>
<use xlink:href="#glyph-3-5" x="183.152344" y="14.644531"/>
<use xlink:href="#glyph-3-17" x="187.152344" y="14.644531"/>
<use xlink:href="#glyph-3-18" x="198.152344" y="14.644531"/>
<use xlink:href="#glyph-3-19" x="205.152344" y="14.644531"/>
<use xlink:href="#glyph-3-10" x="212.152344" y="14.644531"/>
<use xlink:href="#glyph-3-12" x="216.152344" y="14.644531"/>
<use xlink:href="#glyph-3-16" x="223.152344" y="14.644531"/>
<use xlink:href="#glyph-3-20" x="230.152344" y="14.644531"/>
<use xlink:href="#glyph-3-18" x="237.152344" y="14.644531"/>
<use xlink:href="#glyph-3-10" x="244.152344" y="14.644531"/>
<use xlink:href="#glyph-3-15" x="248.152344" y="14.644531"/>
<use xlink:href="#glyph-3-5" x="256.152344" y="14.644531"/>
<use xlink:href="#glyph-3-8" x="260.152344" y="14.644531"/>
<use xlink:href="#glyph-3-7" x="267.152344" y="14.644531"/>
<use xlink:href="#glyph-3-4" x="274.152344" y="14.644531"/>
<use xlink:href="#glyph-3-10" x="278.152344" y="14.644531"/>
<use xlink:href="#glyph-3-21" x="282.152344" y="14.644531"/>
<use xlink:href="#glyph-3-16" x="293.152344" y="14.644531"/>
<use xlink:href="#glyph-3-3" x="300.152344" y="14.644531"/>
<use xlink:href="#glyph-3-3" x="307.152344" y="14.644531"/>
</g>
</svg>
