<?xml version="1.0" encoding="UTF-8"?>
<svg xmlns="http://www.w3.org/2000/svg" xmlns:xlink="http://www.w3.org/1999/xlink" width="288" height="288" viewBox="0 0 288 288">
<defs>
<g>
<g id="glyph-0-0">
<path d="M 0.3125 0 L 0.3125 -6.875 L 5.765625 -6.875 L 5.765625 0 Z M 4.90625 -0.859375 L 4.90625 -6.015625 L 1.171875 -6.015625 L 1.171875 -0.859375 Z M 4.90625 -0.859375 "/>
</g>
<g id="glyph-0-1">
<path d="M 2.59375 -6.703125 C 3.457031 -6.703125 4.085938 -6.347656 4.484375 -5.640625 C 4.773438 -5.085938 4.921875 -4.328125 4.921875 -3.359375 C 4.921875 -2.453125 4.785156 -1.695312 4.515625 -1.09375 C 4.128906 -0.238281 3.488281 0.1875 2.59375 0.1875 C 1.78125 0.1875 1.179688 -0.160156 0.796875 -0.859375 C 0.460938 -1.453125 0.296875 -2.238281 0.296875 -3.21875 C 0.296875 -3.976562 0.394531 -4.632812 0.59375 -5.1875 C 0.957031 -6.195312 1.625 -6.703125 2.59375 -6.703125 Z M 2.578125 -0.578125 C 3.015625 -0.578125 3.363281 -0.769531 3.625 -1.15625 C 3.882812 -1.550781 4.015625 -2.273438 4.015625 -3.328125 C 4.015625 -4.085938 3.921875 -4.710938 3.734375 -5.203125 C 3.546875 -5.703125 3.179688 -5.953125 2.640625 -5.953125 C 2.148438 -5.953125 1.789062 -5.71875 1.5625 -5.25 C 1.332031 -4.78125 1.21875 -4.09375 1.21875 -3.1875 C 1.21875 -2.5 1.289062 -1.945312 1.4375 -1.53125 C 1.65625 -0.894531 2.035156 -0.578125 2.578125 -0.578125 Z M 2.578125 -0.578125 "/>
</g>
<g id="glyph-0-2">
<path d="M 0.8125 -1.015625 L 1.796875 -1.015625 L 1.796875 0 L 0.8125 0 Z M 0.8125 -1.015625 "/>
</g>
<g id="glyph-0-3">
<path d="M 1.1875 -1.703125 C 1.238281 -1.222656 1.460938 -0.894531 1.859375 -0.71875 C 2.054688 -0.625 2.285156 -0.578125 2.546875 -0.578125 C 3.046875 -0.578125 3.414062 -0.734375 3.65625 -1.046875 C 3.894531 -1.367188 4.015625 -1.722656 4.015625 -2.109375 C 4.015625 -2.578125 3.867188 -2.9375 3.578125 -3.1875 C 3.296875 -3.445312 2.957031 -3.578125 2.5625 -3.578125 C 2.269531 -3.578125 2.019531 -3.519531 1.8125 -3.40625 C 1.601562 -3.289062 1.425781 -3.132812 1.28125 -2.9375 L 0.546875 -2.984375 L 1.0625 -6.59375 L 4.546875 -6.59375 L 4.546875 -5.78125 L 1.703125 -5.78125 L 1.40625 -3.921875 C 1.5625 -4.035156 1.710938 -4.125 1.859375 -4.1875 C 2.109375 -4.289062 2.394531 -4.34375 2.71875 -4.34375 C 3.332031 -4.34375 3.851562 -4.140625 4.28125 -3.734375 C 4.707031 -3.335938 4.921875 -2.835938 4.921875 -2.234375 C 4.921875 -1.597656 4.722656 -1.035156 4.328125 -0.546875 C 3.941406 -0.0664062 3.320312 0.171875 2.46875 0.171875 C 1.914062 0.171875 1.429688 0.0195312 1.015625 -0.28125 C 0.597656 -0.59375 0.363281 -1.066406 0.3125 -1.703125 Z M 1.1875 -1.703125 "/>
</g>
<g id="glyph-0-4">
<path d="M 0.921875 -4.75 L 0.921875 -5.390625 C 1.523438 -5.453125 1.945312 -5.550781 2.1875 -5.6875 C 2.425781 -5.832031 2.609375 -6.164062 2.734375 -6.6875 L 3.390625 -6.6875 L 3.390625 0 L 2.5 0 L 2.5 -4.75 Z M 0.921875 -4.75 "/>
</g>
<g id="glyph-0-5">
<path d="M 0.296875 0 C 0.328125 -0.570312 0.445312 -1.070312 0.65625 -1.5 C 0.863281 -1.9375 1.269531 -2.328125 1.875 -2.671875 L 2.765625 -3.1875 C 3.171875 -3.425781 3.457031 -3.628906 3.625 -3.796875 C 3.875 -4.054688 4 -4.351562 4 -4.6875 C 4 -5.070312 3.878906 -5.378906 3.640625 -5.609375 C 3.410156 -5.835938 3.101562 -5.953125 2.71875 -5.953125 C 2.132812 -5.953125 1.734375 -5.734375 1.515625 -5.296875 C 1.398438 -5.066406 1.335938 -4.742188 1.328125 -4.328125 L 0.46875 -4.328125 C 0.476562 -4.910156 0.582031 -5.382812 0.78125 -5.75 C 1.144531 -6.40625 1.789062 -6.734375 2.71875 -6.734375 C 3.488281 -6.734375 4.050781 -6.523438 4.40625 -6.109375 C 4.757812 -5.691406 4.9375 -5.226562 4.9375 -4.71875 C 4.9375 -4.1875 4.75 -3.726562 4.375 -3.34375 C 4.15625 -3.125 3.757812 -2.851562 3.1875 -2.53125 L 2.546875 -2.1875 C 2.242188 -2.019531 2.003906 -1.859375 1.828125 -1.703125 C 1.515625 -1.429688 1.316406 -1.128906 1.234375 -0.796875 L 4.90625 -0.796875 L 4.90625 0 Z M 0.296875 0 "/>
</g>
<g id="glyph-0-6">
<path d="M 2.484375 0.1875 C 1.691406 0.1875 1.117188 -0.03125 0.765625 -0.46875 C 0.410156 -0.90625 0.234375 -1.4375 0.234375 -2.0625 L 1.109375 -2.0625 C 1.148438 -1.625 1.234375 -1.304688 1.359375 -1.109375 C 1.578125 -0.753906 1.96875 -0.578125 2.53125 -0.578125 C 2.976562 -0.578125 3.335938 -0.695312 3.609375 -0.9375 C 3.878906 -1.175781 4.015625 -1.484375 4.015625 -1.859375 C 4.015625 -2.316406 3.867188 -2.640625 3.578125 -2.828125 C 3.296875 -3.015625 2.90625 -3.109375 2.40625 -3.109375 C 2.351562 -3.109375 2.296875 -3.101562 2.234375 -3.09375 C 2.179688 -3.09375 2.125 -3.09375 2.0625 -3.09375 L 2.0625 -3.84375 C 2.144531 -3.832031 2.21875 -3.820312 2.28125 -3.8125 C 2.34375 -3.8125 2.40625 -3.8125 2.46875 -3.8125 C 2.789062 -3.8125 3.050781 -3.863281 3.25 -3.96875 C 3.601562 -4.144531 3.78125 -4.457031 3.78125 -4.90625 C 3.78125 -5.238281 3.660156 -5.492188 3.421875 -5.671875 C 3.191406 -5.859375 2.914062 -5.953125 2.59375 -5.953125 C 2.03125 -5.953125 1.644531 -5.765625 1.4375 -5.390625 C 1.3125 -5.179688 1.242188 -4.882812 1.234375 -4.5 L 0.390625 -4.5 C 0.390625 -5 0.492188 -5.425781 0.703125 -5.78125 C 1.046875 -6.40625 1.648438 -6.71875 2.515625 -6.71875 C 3.191406 -6.71875 3.71875 -6.5625 4.09375 -6.25 C 4.46875 -5.945312 4.65625 -5.507812 4.65625 -4.9375 C 4.65625 -4.519531 4.546875 -4.1875 4.328125 -3.9375 C 4.191406 -3.78125 4.015625 -3.65625 3.796875 -3.5625 C 4.148438 -3.46875 4.425781 -3.28125 4.625 -3 C 4.820312 -2.71875 4.921875 -2.378906 4.921875 -1.984375 C 4.921875 -1.347656 4.707031 -0.828125 4.28125 -0.421875 C 3.863281 -0.015625 3.265625 0.1875 2.484375 0.1875 Z M 2.484375 0.1875 "/>
</g>
<g id="glyph-0-7">
<path d="M 3.171875 -2.375 L 3.171875 -5.421875 L 1.015625 -2.375 Z M 3.1875 0 L 3.1875 -1.640625 L 0.25 -1.640625 L 0.25 -2.46875 L 3.3125 -6.734375 L 4.03125 -6.734375 L 4.03125 -2.375 L 5.015625 -2.375 L 5.015625 -1.640625 L 4.03125 -1.640625 L 4.03125 0 Z M 3.1875 0 "/>
</g>
<g id="glyph-0-8">
<path d="M 0.9375 -6.875 L 1.890625 -6.875 L 1.890625 0 L 0.9375 0 Z M 0.9375 -6.875 "/>
</g>
<g id="glyph-0-9">
<path d="M 2.609375 -3.890625 C 2.984375 -3.890625 3.273438 -3.992188 3.484375 -4.203125 C 3.691406 -4.410156 3.796875 -4.660156 3.796875 -4.953125 C 3.796875 -5.203125 3.691406 -5.429688 3.484375 -5.640625 C 3.285156 -5.847656 2.984375 -5.953125 2.578125 -5.953125 C 2.171875 -5.953125 1.875 -5.847656 1.6875 -5.640625 C 1.507812 -5.429688 1.421875 -5.1875 1.421875 -4.90625 C 1.421875 -4.59375 1.535156 -4.34375 1.765625 -4.15625 C 2.003906 -3.976562 2.285156 -3.890625 2.609375 -3.890625 Z M 2.65625 -0.578125 C 3.050781 -0.578125 3.375 -0.679688 3.625 -0.890625 C 3.882812 -1.097656 4.015625 -1.414062 4.015625 -1.84375 C 4.015625 -2.269531 3.878906 -2.59375 3.609375 -2.8125 C 3.347656 -3.039062 3.007812 -3.15625 2.59375 -3.15625 C 2.195312 -3.15625 1.867188 -3.039062 1.609375 -2.8125 C 1.359375 -2.582031 1.234375 -2.265625 1.234375 -1.859375 C 1.234375 -1.515625 1.347656 -1.210938 1.578125 -0.953125 C 1.816406 -0.703125 2.175781 -0.578125 2.65625 -0.578125 Z M 1.46875 -3.578125 C 1.226562 -3.671875 1.039062 -3.785156 0.90625 -3.921875 C 0.664062 -4.171875 0.546875 -4.5 0.546875 -4.90625 C 0.546875 -5.40625 0.722656 -5.832031 1.078125 -6.1875 C 1.441406 -6.550781 1.957031 -6.734375 2.625 -6.734375 C 3.269531 -6.734375 3.773438 -6.5625 4.140625 -6.21875 C 4.503906 -5.875 4.6875 -5.476562 4.6875 -5.03125 C 4.6875 -4.613281 4.582031 -4.273438 4.375 -4.015625 C 4.25 -3.867188 4.0625 -3.722656 3.8125 -3.578125 C 4.09375 -3.453125 4.3125 -3.304688 4.46875 -3.140625 C 4.769531 -2.828125 4.921875 -2.421875 4.921875 -1.921875 C 4.921875 -1.335938 4.722656 -0.835938 4.328125 -0.421875 C 3.929688 -0.015625 3.367188 0.1875 2.640625 0.1875 C 1.984375 0.1875 1.429688 0.0078125 0.984375 -0.34375 C 0.535156 -0.695312 0.3125 -1.210938 0.3125 -1.890625 C 0.3125 -2.285156 0.40625 -2.625 0.59375 -2.90625 C 0.789062 -3.195312 1.082031 -3.421875 1.46875 -3.578125 Z M 1.46875 -3.578125 "/>
</g>
<g id="glyph-1-0">
<path d="M 0.390625 0 L 0.390625 -8.609375 L 7.21875 -8.609375 L 7.21875 0 Z M 6.140625 -1.078125 L 6.140625 -7.53125 L 1.46875 -7.53125 L 1.46875 -1.078125 Z M 6.140625 -1.078125 "/>
</g>
<g id="glyph-1-1">
<path d="M 0.796875 -8.609375 L 1.859375 -8.609375 L 1.859375 0 L 0.796875 0 Z M 0.796875 -8.609375 "/>
</g>
<g id="glyph-1-2">
<path d="M 3.390625 -6.421875 C 3.835938 -6.421875 4.269531 -6.316406 4.6875 -6.109375 C 5.101562 -5.898438 5.421875 -5.628906 5.640625 -5.296875 C 5.847656 -4.972656 5.988281 -4.601562 6.0625 -4.1875 C 6.125 -3.894531 6.15625 -3.429688 6.15625 -2.796875 L 1.546875 -2.796875 C 1.566406 -2.160156 1.71875 -1.648438 2 -1.265625 C 2.28125 -0.878906 2.71875 -0.6875 3.3125 -0.6875 C 3.863281 -0.6875 4.300781 -0.867188 4.625 -1.234375 C 4.8125 -1.441406 4.945312 -1.6875 5.03125 -1.96875 L 6.0625 -1.96875 C 6.039062 -1.738281 5.953125 -1.484375 5.796875 -1.203125 C 5.640625 -0.921875 5.46875 -0.6875 5.28125 -0.5 C 4.957031 -0.1875 4.554688 0.0195312 4.078125 0.125 C 3.828125 0.1875 3.539062 0.21875 3.21875 0.21875 C 2.4375 0.21875 1.773438 -0.0625 1.234375 -0.625 C 0.691406 -1.195312 0.421875 -1.992188 0.421875 -3.015625 C 0.421875 -4.023438 0.691406 -4.84375 1.234375 -5.46875 C 1.785156 -6.101562 2.503906 -6.421875 3.390625 -6.421875 Z M 5.0625 -3.640625 C 5.019531 -4.097656 4.921875 -4.460938 4.765625 -4.734375 C 4.484375 -5.242188 4.003906 -5.5 3.328125 -5.5 C 2.835938 -5.5 2.425781 -5.320312 2.09375 -4.96875 C 1.769531 -4.625 1.597656 -4.179688 1.578125 -3.640625 Z M 3.28125 -6.421875 Z M 3.28125 -6.421875 "/>
</g>
<g id="glyph-1-3">
<path d="M 0.78125 -6.28125 L 1.78125 -6.28125 L 1.78125 -5.390625 C 2.070312 -5.753906 2.382812 -6.015625 2.71875 -6.171875 C 3.050781 -6.335938 3.421875 -6.421875 3.828125 -6.421875 C 4.710938 -6.421875 5.3125 -6.109375 5.625 -5.484375 C 5.800781 -5.140625 5.890625 -4.65625 5.890625 -4.03125 L 5.890625 0 L 4.8125 0 L 4.8125 -3.953125 C 4.8125 -4.335938 4.753906 -4.644531 4.640625 -4.875 C 4.453125 -5.269531 4.113281 -5.46875 3.625 -5.46875 C 3.375 -5.46875 3.171875 -5.441406 3.015625 -5.390625 C 2.722656 -5.304688 2.46875 -5.132812 2.25 -4.875 C 2.070312 -4.664062 1.957031 -4.453125 1.90625 -4.234375 C 1.851562 -4.015625 1.828125 -3.695312 1.828125 -3.28125 L 1.828125 0 L 0.78125 0 Z M 3.25 -6.421875 Z M 3.25 -6.421875 "/>
</g>
<g id="glyph-1-4">
<path d="M 2.984375 -6.390625 C 3.484375 -6.390625 3.914062 -6.269531 4.28125 -6.03125 C 4.476562 -5.882812 4.679688 -5.679688 4.890625 -5.421875 L 4.890625 -6.21875 L 5.859375 -6.21875 L 5.859375 -0.515625 C 5.859375 0.285156 5.742188 0.914062 5.515625 1.375 C 5.078125 2.226562 4.25 2.65625 3.03125 2.65625 C 2.351562 2.65625 1.785156 2.503906 1.328125 2.203125 C 0.867188 1.898438 0.609375 1.425781 0.546875 0.78125 L 1.625 0.78125 C 1.675781 1.0625 1.773438 1.28125 1.921875 1.4375 C 2.160156 1.664062 2.535156 1.78125 3.046875 1.78125 C 3.859375 1.78125 4.390625 1.492188 4.640625 0.921875 C 4.785156 0.585938 4.851562 -0.0078125 4.84375 -0.875 C 4.632812 -0.550781 4.378906 -0.3125 4.078125 -0.15625 C 3.785156 0 3.394531 0.078125 2.90625 0.078125 C 2.226562 0.078125 1.632812 -0.160156 1.125 -0.640625 C 0.613281 -1.128906 0.359375 -1.929688 0.359375 -3.046875 C 0.359375 -4.097656 0.613281 -4.914062 1.125 -5.5 C 1.644531 -6.09375 2.265625 -6.390625 2.984375 -6.390625 Z M 4.890625 -3.171875 C 4.890625 -3.941406 4.726562 -4.515625 4.40625 -4.890625 C 4.082031 -5.265625 3.675781 -5.453125 3.1875 -5.453125 C 2.4375 -5.453125 1.925781 -5.101562 1.65625 -4.40625 C 1.507812 -4.039062 1.4375 -3.554688 1.4375 -2.953125 C 1.4375 -2.242188 1.578125 -1.703125 1.859375 -1.328125 C 2.148438 -0.960938 2.539062 -0.78125 3.03125 -0.78125 C 3.789062 -0.78125 4.320312 -1.125 4.625 -1.8125 C 4.800781 -2.195312 4.890625 -2.648438 4.890625 -3.171875 Z M 3.109375 -6.421875 Z M 3.109375 -6.421875 "/>
</g>
<g id="glyph-1-5">
<path d="M 0.984375 -8.03125 L 2.046875 -8.03125 L 2.046875 -6.28125 L 3.046875 -6.28125 L 3.046875 -5.421875 L 2.046875 -5.421875 L 2.046875 -1.3125 C 2.046875 -1.09375 2.125 -0.945312 2.28125 -0.875 C 2.351562 -0.832031 2.488281 -0.8125 2.6875 -0.8125 C 2.738281 -0.8125 2.789062 -0.8125 2.84375 -0.8125 C 2.90625 -0.820312 2.972656 -0.828125 3.046875 -0.828125 L 3.046875 0 C 2.929688 0.03125 2.804688 0.0507812 2.671875 0.0625 C 2.546875 0.0820312 2.40625 0.09375 2.25 0.09375 C 1.757812 0.09375 1.425781 -0.03125 1.25 -0.28125 C 1.070312 -0.53125 0.984375 -0.859375 0.984375 -1.265625 L 0.984375 -5.421875 L 0.140625 -5.421875 L 0.140625 -6.28125 L 0.984375 -6.28125 Z M 0.984375 -8.03125 "/>
</g>
<g id="glyph-1-6">
<path d="M 0.78125 -8.640625 L 1.828125 -8.640625 L 1.828125 -5.421875 C 2.078125 -5.742188 2.300781 -5.96875 2.5 -6.09375 C 2.84375 -6.3125 3.269531 -6.421875 3.78125 -6.421875 C 4.6875 -6.421875 5.300781 -6.101562 5.625 -5.46875 C 5.800781 -5.125 5.890625 -4.644531 5.890625 -4.03125 L 5.890625 0 L 4.8125 0 L 4.8125 -3.953125 C 4.8125 -4.410156 4.75 -4.75 4.625 -4.96875 C 4.4375 -5.3125 4.078125 -5.484375 3.546875 -5.484375 C 3.109375 -5.484375 2.710938 -5.332031 2.359375 -5.03125 C 2.003906 -4.726562 1.828125 -4.160156 1.828125 -3.328125 L 1.828125 0 L 0.78125 0 Z M 0.78125 -8.640625 "/>
</g>
<g id="glyph-1-7">
<path d="M 0 1.5 L 0 0.90625 L 6.671875 0.90625 L 6.671875 1.5 Z M 0 1.5 "/>
</g>
<g id="glyph-1-8">
<path d="M 0.78125 -6.28125 L 1.8125 -6.28125 L 1.8125 -5.390625 C 2.0625 -5.691406 2.289062 -5.914062 2.5 -6.0625 C 2.84375 -6.300781 3.238281 -6.421875 3.6875 -6.421875 C 4.1875 -6.421875 4.585938 -6.296875 4.890625 -6.046875 C 5.054688 -5.910156 5.210938 -5.703125 5.359375 -5.421875 C 5.585938 -5.765625 5.859375 -6.015625 6.171875 -6.171875 C 6.492188 -6.335938 6.851562 -6.421875 7.25 -6.421875 C 8.09375 -6.421875 8.664062 -6.113281 8.96875 -5.5 C 9.132812 -5.175781 9.21875 -4.734375 9.21875 -4.171875 L 9.21875 0 L 8.125 0 L 8.125 -4.359375 C 8.125 -4.773438 8.019531 -5.0625 7.8125 -5.21875 C 7.601562 -5.375 7.347656 -5.453125 7.046875 -5.453125 C 6.628906 -5.453125 6.269531 -5.3125 5.96875 -5.03125 C 5.675781 -4.757812 5.53125 -4.300781 5.53125 -3.65625 L 5.53125 0 L 4.453125 0 L 4.453125 -4.09375 C 4.453125 -4.519531 4.398438 -4.832031 4.296875 -5.03125 C 4.140625 -5.320312 3.84375 -5.46875 3.40625 -5.46875 C 3.007812 -5.46875 2.644531 -5.3125 2.3125 -5 C 1.988281 -4.695312 1.828125 -4.140625 1.828125 -3.328125 L 1.828125 0 L 0.78125 0 Z M 0.78125 -6.28125 "/>
</g>
<g id="glyph-1-9">
<path d="M 1.578125 -1.671875 C 1.578125 -1.367188 1.6875 -1.128906 1.90625 -0.953125 C 2.132812 -0.773438 2.398438 -0.6875 2.703125 -0.6875 C 3.078125 -0.6875 3.4375 -0.769531 3.78125 -0.9375 C 4.375 -1.226562 4.671875 -1.695312 4.671875 -2.34375 L 4.671875 -3.1875 C 4.535156 -3.113281 4.363281 -3.046875 4.15625 -2.984375 C 3.957031 -2.929688 3.757812 -2.894531 3.5625 -2.875 L 2.9375 -2.796875 C 2.550781 -2.742188 2.257812 -2.660156 2.0625 -2.546875 C 1.738281 -2.367188 1.578125 -2.078125 1.578125 -1.671875 Z M 4.140625 -3.796875 C 4.378906 -3.828125 4.539062 -3.929688 4.625 -4.109375 C 4.664062 -4.203125 4.6875 -4.335938 4.6875 -4.515625 C 4.6875 -4.867188 4.554688 -5.125 4.296875 -5.28125 C 4.046875 -5.445312 3.6875 -5.53125 3.21875 -5.53125 C 2.664062 -5.53125 2.273438 -5.382812 2.046875 -5.09375 C 1.910156 -4.925781 1.820312 -4.679688 1.78125 -4.359375 L 0.796875 -4.359375 C 0.816406 -5.128906 1.066406 -5.664062 1.546875 -5.96875 C 2.035156 -6.269531 2.597656 -6.421875 3.234375 -6.421875 C 3.972656 -6.421875 4.570312 -6.28125 5.03125 -6 C 5.488281 -5.71875 5.71875 -5.28125 5.71875 -4.6875 L 5.71875 -1.078125 C 5.71875 -0.972656 5.738281 -0.882812 5.78125 -0.8125 C 5.832031 -0.75 5.929688 -0.71875 6.078125 -0.71875 C 6.117188 -0.71875 6.164062 -0.71875 6.21875 -0.71875 C 6.28125 -0.726562 6.347656 -0.738281 6.421875 -0.75 L 6.421875 0.03125 C 6.253906 0.0703125 6.125 0.0976562 6.03125 0.109375 C 5.945312 0.128906 5.832031 0.140625 5.6875 0.140625 C 5.320312 0.140625 5.0625 0.0078125 4.90625 -0.25 C 4.8125 -0.382812 4.75 -0.578125 4.71875 -0.828125 C 4.5 -0.546875 4.1875 -0.300781 3.78125 -0.09375 C 3.382812 0.113281 2.945312 0.21875 2.46875 0.21875 C 1.882812 0.21875 1.40625 0.0390625 1.03125 -0.3125 C 0.664062 -0.664062 0.484375 -1.109375 0.484375 -1.640625 C 0.484375 -2.222656 0.664062 -2.675781 1.03125 -3 C 1.394531 -3.320312 1.867188 -3.519531 2.453125 -3.59375 Z M 3.265625 -6.421875 Z M 3.265625 -6.421875 "/>
</g>
<g id="glyph-1-10">
<path d="M 0.75 -8.609375 L 1.765625 -8.609375 L 1.765625 -3.609375 L 4.46875 -6.28125 L 5.8125 -6.28125 L 3.421875 -3.921875 L 5.953125 0 L 4.609375 0 L 2.65625 -3.171875 L 1.765625 -2.359375 L 1.765625 0 L 0.75 0 Z M 0.75 -8.609375 "/>
</g>
<g id="glyph-2-0">
<path d="M 0 -0.390625 L -8.609375 -0.390625 L -8.609375 -7.21875 L 0 -7.21875 Z M -1.078125 -6.140625 L -7.53125 -6.140625 L -7.53125 -1.46875 L -1.078125 -1.46875 Z M -1.078125 -6.140625 "/>
</g>
<g id="glyph-2-1">
<path d="M -3.0625 -1.4375 C -2.394531 -1.4375 -1.832031 -1.578125 -1.375 -1.859375 C -0.925781 -2.148438 -0.703125 -2.609375 -0.703125 -3.234375 C -0.703125 -3.722656 -0.910156 -4.125 -1.328125 -4.4375 C -1.742188 -4.757812 -2.347656 -4.921875 -3.140625 -4.921875 C -3.929688 -4.921875 -4.515625 -4.753906 -4.890625 -4.421875 C -5.273438 -4.097656 -5.46875 -3.703125 -5.46875 -3.234375 C -5.46875 -2.703125 -5.265625 -2.269531 -4.859375 -1.9375 C -4.453125 -1.601562 -3.851562 -1.4375 -3.0625 -1.4375 Z M -6.390625 -3.03125 C -6.390625 -3.507812 -6.285156 -3.910156 -6.078125 -4.234375 C -5.960938 -4.421875 -5.757812 -4.632812 -5.46875 -4.875 L -8.640625 -4.875 L -8.640625 -5.890625 L 0 -5.890625 L 0 -4.9375 L -0.875 -4.9375 C -0.488281 -4.695312 -0.207031 -4.40625 -0.03125 -4.0625 C 0.132812 -3.726562 0.21875 -3.34375 0.21875 -2.90625 C 0.21875 -2.207031 -0.0703125 -1.601562 -0.65625 -1.09375 C -1.25 -0.582031 -2.03125 -0.328125 -3 -0.328125 C -3.914062 -0.328125 -4.707031 -0.5625 -5.375 -1.03125 C -6.050781 -1.5 -6.390625 -2.164062 -6.390625 -3.03125 Z M -6.390625 -3.03125 "/>
</g>
<g id="glyph-2-2">
<path d="M -6.421875 -3.390625 C -6.421875 -3.835938 -6.316406 -4.269531 -6.109375 -4.6875 C -5.898438 -5.101562 -5.628906 -5.421875 -5.296875 -5.640625 C -4.972656 -5.847656 -4.601562 -5.988281 -4.1875 -6.0625 C -3.894531 -6.125 -3.429688 -6.15625 -2.796875 -6.15625 L -2.796875 -1.546875 C -2.160156 -1.566406 -1.648438 -1.71875 -1.265625 -2 C -0.878906 -2.28125 -0.6875 -2.71875 -0.6875 -3.3125 C -0.6875 -3.863281 -0.867188 -4.300781 -1.234375 -4.625 C -1.441406 -4.8125 -1.6875 -4.945312 -1.96875 -5.03125 L -1.96875 -6.0625 C -1.738281 -6.039062 -1.484375 -5.953125 -1.203125 -5.796875 C -0.921875 -5.640625 -0.6875 -5.46875 -0.5 -5.28125 C -0.1875 -4.957031 0.0195312 -4.554688 0.125 -4.078125 C 0.1875 -3.828125 0.21875 -3.539062 0.21875 -3.21875 C 0.21875 -2.4375 -0.0625 -1.773438 -0.625 -1.234375 C -1.195312 -0.691406 -1.992188 -0.421875 -3.015625 -0.421875 C -4.023438 -0.421875 -4.84375 -0.691406 -5.46875 -1.234375 C -6.101562 -1.785156 -6.421875 -2.503906 -6.421875 -3.390625 Z M -3.640625 -5.0625 C -4.097656 -5.019531 -4.460938 -4.921875 -4.734375 -4.765625 C -5.242188 -4.484375 -5.5 -4.003906 -5.5 -3.328125 C -5.5 -2.835938 -5.320312 -2.425781 -4.96875 -2.09375 C -4.625 -1.769531 -4.179688 -1.597656 -3.640625 -1.578125 Z M -6.421875 -3.28125 Z M -6.421875 -3.28125 "/>
</g>
<g id="glyph-2-3">
<path d="M -6.28125 -0.78125 L -6.28125 -1.78125 L -5.390625 -1.78125 C -5.753906 -2.070312 -6.015625 -2.382812 -6.171875 -2.71875 C -6.335938 -3.050781 -6.421875 -3.421875 -6.421875 -3.828125 C -6.421875 -4.710938 -6.109375 -5.3125 -5.484375 -5.625 C -5.140625 -5.800781 -4.65625 -5.890625 -4.03125 -5.890625 L 0 -5.890625 L 0 -4.8125 L -3.953125 -4.8125 C -4.335938 -4.8125 -4.644531 -4.753906 -4.875 -4.640625 C -5.269531 -4.453125 -5.46875 -4.113281 -5.46875 -3.625 C -5.46875 -3.375 -5.441406 -3.171875 -5.390625 -3.015625 C -5.304688 -2.722656 -5.132812 -2.46875 -4.875 -2.25 C -4.664062 -2.070312 -4.453125 -1.957031 -4.234375 -1.90625 C -4.015625 -1.851562 -3.695312 -1.828125 -3.28125 -1.828125 L 0 -1.828125 L 0 -0.78125 Z M -6.421875 -3.25 Z M -6.421875 -3.25 "/>
</g>
<g id="glyph-2-4">
<path d="M -1.96875 -1.40625 C -1.613281 -1.4375 -1.34375 -1.523438 -1.15625 -1.671875 C -0.820312 -1.929688 -0.65625 -2.390625 -0.65625 -3.046875 C -0.65625 -3.441406 -0.738281 -3.785156 -0.90625 -4.078125 C -1.070312 -4.378906 -1.332031 -4.53125 -1.6875 -4.53125 C -1.957031 -4.53125 -2.164062 -4.410156 -2.3125 -4.171875 C -2.394531 -4.015625 -2.492188 -3.710938 -2.609375 -3.265625 L -2.8125 -2.421875 C -2.945312 -1.890625 -3.097656 -1.5 -3.265625 -1.25 C -3.546875 -0.789062 -3.941406 -0.5625 -4.453125 -0.5625 C -5.046875 -0.5625 -5.523438 -0.773438 -5.890625 -1.203125 C -6.253906 -1.628906 -6.4375 -2.207031 -6.4375 -2.9375 C -6.4375 -3.875 -6.160156 -4.550781 -5.609375 -4.96875 C -5.253906 -5.238281 -4.875 -5.367188 -4.46875 -5.359375 L -4.46875 -4.359375 C -4.707031 -4.335938 -4.925781 -4.253906 -5.125 -4.109375 C -5.394531 -3.867188 -5.53125 -3.445312 -5.53125 -2.84375 C -5.53125 -2.445312 -5.453125 -2.144531 -5.296875 -1.9375 C -5.148438 -1.738281 -4.953125 -1.640625 -4.703125 -1.640625 C -4.429688 -1.640625 -4.210938 -1.773438 -4.046875 -2.046875 C -3.953125 -2.203125 -3.867188 -2.429688 -3.796875 -2.734375 L -3.625 -3.421875 C -3.4375 -4.179688 -3.257812 -4.691406 -3.09375 -4.953125 C -2.820312 -5.359375 -2.394531 -5.5625 -1.8125 -5.5625 C -1.257812 -5.5625 -0.78125 -5.347656 -0.375 -4.921875 C 0.0273438 -4.503906 0.234375 -3.863281 0.234375 -3 C 0.234375 -2.0625 0.0234375 -1.394531 -0.390625 -1 C -0.816406 -0.613281 -1.34375 -0.410156 -1.96875 -0.390625 Z M -6.421875 -2.953125 Z M -6.421875 -2.953125 "/>
</g>
<g id="glyph-2-5">
<path d="M -6.25 -0.78125 L -6.25 -1.84375 L 0 -1.84375 L 0 -0.78125 Z M -8.609375 -0.78125 L -8.609375 -1.84375 L -7.40625 -1.84375 L -7.40625 -0.78125 Z M -8.609375 -0.78125 "/>
</g>
<g id="glyph-2-6">
<path d="M -8.03125 -0.984375 L -8.03125 -2.046875 L -6.28125 -2.046875 L -6.28125 -3.046875 L -5.421875 -3.046875 L -5.421875 -2.046875 L -1.3125 -2.046875 C -1.09375 -2.046875 -0.945312 -2.125 -0.875 -2.28125 C -0.832031 -2.351562 -0.8125 -2.488281 -0.8125 -2.6875 C -0.8125 -2.738281 -0.8125 -2.789062 -0.8125 -2.84375 C -0.820312 -2.90625 -0.828125 -2.972656 -0.828125 -3.046875 L 0 -3.046875 C 0.03125 -2.929688 0.0507812 -2.804688 0.0625 -2.671875 C 0.0820312 -2.546875 0.09375 -2.40625 0.09375 -2.25 C 0.09375 -1.757812 -0.03125 -1.425781 -0.28125 -1.25 C -0.53125 -1.070312 -0.859375 -0.984375 -1.265625 -0.984375 L -5.421875 -0.984375 L -5.421875 -0.140625 L -6.28125 -0.140625 L -6.28125 -0.984375 Z M -8.03125 -0.984375 "/>
</g>
<g id="glyph-2-7">
<path d="M -6.28125 -4.6875 L -6.28125 -5.859375 C -5.875 -5.710938 -4.953125 -5.382812 -3.515625 -4.875 C -2.441406 -4.488281 -1.566406 -4.164062 -0.890625 -3.90625 C 0.710938 -3.300781 1.691406 -2.875 2.046875 -2.625 C 2.398438 -2.375 2.578125 -1.941406 2.578125 -1.328125 C 2.578125 -1.179688 2.566406 -1.066406 2.546875 -0.984375 C 2.535156 -0.910156 2.515625 -0.8125 2.484375 -0.6875 L 1.53125 -0.6875 C 1.582031 -0.875 1.613281 -1.007812 1.625 -1.09375 C 1.632812 -1.175781 1.640625 -1.25 1.640625 -1.3125 C 1.640625 -1.5 1.609375 -1.640625 1.546875 -1.734375 C 1.484375 -1.828125 1.40625 -1.90625 1.3125 -1.96875 C 1.28125 -1.988281 1.117188 -2.054688 0.828125 -2.171875 C 0.535156 -2.296875 0.320312 -2.382812 0.1875 -2.4375 L -6.28125 -0.125 L -6.28125 -1.3125 L -1.171875 -3 Z M -6.421875 -3 Z M -6.421875 -3 "/>
</g>
</g>
<clipPath id="clip-0">
<path clip-rule="nonzero" d="M 49.347656 212 L 226.855469 212 L 226.855469 213 L 49.347656 213 Z M 49.347656 212 "/>
</clipPath>
<clipPath id="clip-1">
<path clip-rule="nonzero" d="M 49.347656 156 L 226.855469 156 L 226.855469 158 L 49.347656 158 Z M 49.347656 156 "/>
</clipPath>
<clipPath id="clip-2">
<path clip-rule="nonzero" d="M 49.347656 101 L 226.855469 101 L 226.855469 102 L 49.347656 102 Z M 49.347656 101 "/>
</clipPath>
<clipPath id="clip-3">
<path clip-rule="nonzero" d="M 49.347656 45 L 226.855469 45 L 226.855469 46 L 49.347656 46 Z M 49.347656 45 "/>
</clipPath>
<clipPath id="clip-4">
<path clip-rule="nonzero" d="M 79 5.976562 L 80 5.976562 L 80 251.652344 L 79 251.652344 Z M 79 5.976562 "/>
</clipPath>
<clipPath id="clip-5">
<path clip-rule="nonzero" d="M 111 5.976562 L 113 5.976562 L 113 251.652344 L 111 251.652344 Z M 111 5.976562 "/>
</clipPath>
<clipPath id="clip-6">
<path clip-rule="nonzero" d="M 143 5.976562 L 145 5.976562 L 145 251.652344 L 143 251.652344 Z M 143 5.976562 "/>
</clipPath>
<clipPath id="clip-7">
<path clip-rule="nonzero" d="M 176 5.976562 L 177 5.976562 L 177 251.652344 L 176 251.652344 Z M 176 5.976562 "/>
</clipPath>
<clipPath id="clip-8">
<path clip-rule="nonzero" d="M 208 5.976562 L 210 5.976562 L 210 251.652344 L 208 251.652344 Z M 208 5.976562 "/>
</clipPath>
<clipPath id="clip-9">
<path clip-rule="nonzero" d="M 49.347656 239 L 226.855469 239 L 226.855469 242 L 49.347656 242 Z M 49.347656 239 "/>
</clipPath>
<clipPath id="clip-10">
<path clip-rule="nonzero" d="M 49.347656 184 L 226.855469 184 L 226.855469 186 L 49.347656 186 Z M 49.347656 184 "/>
</clipPath>
<clipPath id="clip-11">
<path clip-rule="nonzero" d="M 49.347656 128 L 226.855469 128 L 226.855469 130 L 49.347656 130 Z M 49.347656 128 "/>
</clipPath>
<clipPath id="clip-12">
<path clip-rule="nonzero" d="M 49.347656 72 L 226.855469 72 L 226.855469 75 L 49.347656 75 Z M 49.347656 72 "/>
</clipPath>
<clipPath id="clip-13">
<path clip-rule="nonzero" d="M 49.347656 17 L 226.855469 17 L 226.855469 19 L 49.347656 19 Z M 49.347656 17 "/>
</clipPath>
<clipPath id="clip-14">
<path clip-rule="nonzero" d="M 62 5.976562 L 64 5.976562 L 64 251.652344 L 62 251.652344 Z M 62 5.976562 "/>
</clipPath>
<clipPath id="clip-15">
<path clip-rule="nonzero" d="M 95 5.976562 L 97 5.976562 L 97 251.652344 L 95 251.652344 Z M 95 5.976562 "/>
</clipPath>
<clipPath id="clip-16">
<path clip-rule="nonzero" d="M 127 5.976562 L 129 5.976562 L 129 251.652344 L 127 251.652344 Z M 127 5.976562 "/>
</clipPath>
<clipPath id="clip-17">
<path clip-rule="nonzero" d="M 159 5.976562 L 162 5.976562 L 162 251.652344 L 159 251.652344 Z M 159 5.976562 "/>
</clipPath>
<clipPath id="clip-18">
<path clip-rule="nonzero" d="M 192 5.976562 L 194 5.976562 L 194 251.652344 L 192 251.652344 Z M 192 5.976562 "/>
</clipPath>
<clipPath id="clip-19">
<path clip-rule="nonzero" d="M 224 5.976562 L 226 5.976562 L 226 251.652344 L 224 251.652344 Z M 224 5.976562 "/>
</clipPath>
</defs>
<rect x="-28.8" y="-28.8" width="345.6" height="345.6" fill="rgb(100%, 100%, 100%)" fill-opacity="1"/>
<g clip-path="url(#clip-0)">
<path fill="none" stroke-width="0.581988" stroke-linecap="butt" stroke-linejoin="round" stroke="rgb(92.156863%, 92.156863%, 92.156863%)" stroke-opacity="1" stroke-miterlimit="10" d="M 49.347656 212.65625 L 226.855469 212.65625 "/>
</g>
<g clip-path="url(#clip-1)">
<path fill="none" stroke-width="0.581988" stroke-linecap="butt" stroke-linejoin="round" stroke="rgb(92.156863%, 92.156863%, 92.156863%)" stroke-opacity="1" stroke-miterlimit="10" d="M 49.347656 156.988281 L 226.855469 156.988281 "/>
</g>
<g clip-path="url(#clip-2)">
<path fill="none" stroke-width="0.581988" stroke-linecap="butt" stroke-linejoin="round" stroke="rgb(92.156863%, 92.156863%, 92.156863%)" stroke-opacity="1" stroke-miterlimit="10" d="M 49.347656 101.324219 L 226.855469 101.324219 "/>
</g>
<g clip-path="url(#clip-3)">
<path fill="none" stroke-width="0.581988" stroke-linecap="butt" stroke-linejoin="round" stroke="rgb(92.156863%, 92.156863%, 92.156863%)" stroke-opacity="1" stroke-miterlimit="10" d="M 49.347656 45.660156 L 226.855469 45.660156 "/>
</g>
<g clip-path="url(#clip-4)">
<path fill="none" stroke-width="0.581988" stroke-linecap="butt" stroke-linejoin="round" stroke="rgb(92.156863%, 92.156863%, 92.156863%)" stroke-opacity="1" stroke-miterlimit="10" d="M 79.449219 251.652344 L 79.449219 5.976562 "/>
</g>
<g clip-path="url(#clip-5)">
<path fill="none" stroke-width="0.581988" stroke-linecap="butt" stroke-linejoin="round" stroke="rgb(92.156863%, 92.156863%, 92.156863%)" stroke-opacity="1" stroke-miterlimit="10" d="M 111.851562 251.652344 L 111.851562 5.976562 "/>
</g>
<g clip-path="url(#clip-6)">
<path fill="none" stroke-width="0.581988" stroke-linecap="butt" stroke-linejoin="round" stroke="rgb(92.156863%, 92.156863%, 92.156863%)" stroke-opacity="1" stroke-miterlimit="10" d="M 144.257812 251.652344 L 144.257812 5.976562 "/>
</g>
<g clip-path="url(#clip-7)">
<path fill="none" stroke-width="0.581988" stroke-linecap="butt" stroke-linejoin="round" stroke="rgb(92.156863%, 92.156863%, 92.156863%)" stroke-opacity="1" stroke-miterlimit="10" d="M 176.660156 251.652344 L 176.660156 5.976562 "/>
</g>
<g clip-path="url(#clip-8)">
<path fill="none" stroke-width="0.581988" stroke-linecap="butt" stroke-linejoin="round" stroke="rgb(92.156863%, 92.156863%, 92.156863%)" stroke-opacity="1" stroke-miterlimit="10" d="M 209.066406 251.652344 L 209.066406 5.976562 "/>
</g>
<g clip-path="url(#clip-9)">
<path fill="none" stroke-width="1.163976" stroke-linecap="butt" stroke-linejoin="round" stroke="rgb(92.156863%, 92.156863%, 92.156863%)" stroke-opacity="1" stroke-miterlimit="10" d="M 49.347656 240.488281 L 226.855469 240.488281 "/>
</g>
<g clip-path="url(#clip-10)">
<path fill="none" stroke-width="1.163976" stroke-linecap="butt" stroke-linejoin="round" stroke="rgb(92.156863%, 92.156863%, 92.156863%)" stroke-opacity="1" stroke-miterlimit="10" d="M 49.347656 184.824219 L 226.855469 184.824219 "/>
</g>
<g clip-path="url(#clip-11)">
<path fill="none" stroke-width="1.163976" stroke-linecap="butt" stroke-linejoin="round" stroke="rgb(92.156863%, 92.156863%, 92.156863%)" stroke-opacity="1" stroke-miterlimit="10" d="M 49.347656 129.15625 L 226.855469 129.15625 "/>
</g>
<g clip-path="url(#clip-12)">
<path fill="none" stroke-width="1.163976" stroke-linecap="butt" stroke-linejoin="round" stroke="rgb(92.156863%, 92.156863%, 92.156863%)" stroke-opacity="1" stroke-miterlimit="10" d="M 49.347656 73.492188 L 226.855469 73.492188 "/>
</g>
<g clip-path="url(#clip-13)">
<path fill="none" stroke-width="1.163976" stroke-linecap="butt" stroke-linejoin="round" stroke="rgb(92.156863%, 92.156863%, 92.156863%)" stroke-opacity="1" stroke-miterlimit="10" d="M 49.347656 17.828125 L 226.855469 17.828125 "/>
</g>
<g clip-path="url(#clip-14)">
<path fill="none" stroke-width="1.163976" stroke-linecap="butt" stroke-linejoin="round" stroke="rgb(92.156863%, 92.156863%, 92.156863%)" stroke-opacity="1" stroke-miterlimit="10" d="M 63.246094 251.652344 L 63.246094 5.976562 "/>
</g>
<g clip-path="url(#clip-15)">
<path fill="none" stroke-width="1.163976" stroke-linecap="butt" stroke-linejoin="round" stroke="rgb(92.156863%, 92.156863%, 92.156863%)" stroke-opacity="1" stroke-miterlimit="10" d="M 95.652344 251.652344 L 95.652344 5.976562 "/>
</g>
<g clip-path="url(#clip-16)">
<path fill="none" stroke-width="1.163976" stroke-linecap="butt" stroke-linejoin="round" stroke="rgb(92.156863%, 92.156863%, 92.156863%)" stroke-opacity="1" stroke-miterlimit="10" d="M 128.054688 251.652344 L 128.054688 5.976562 "/>
</g>
<g clip-path="url(#clip-17)">
<path fill="none" stroke-width="1.163976" stroke-linecap="butt" stroke-linejoin="round" stroke="rgb(92.156863%, 92.156863%, 92.156863%)" stroke-opacity="1" stroke-miterlimit="10" d="M 160.460938 251.652344 L 160.460938 5.976562 "/>
</g>
<g clip-path="url(#clip-18)">
<path fill="none" stroke-width="1.163976" stroke-linecap="butt" stroke-linejoin="round" stroke="rgb(92.156863%, 92.156863%, 92.156863%)" stroke-opacity="1" stroke-miterlimit="10" d="M 192.863281 251.652344 L 192.863281 5.976562 "/>
</g>
<g clip-path="url(#clip-19)">
<path fill="none" stroke-width="1.163976" stroke-linecap="butt" stroke-linejoin="round" stroke="rgb(92.156863%, 92.156863%, 92.156863%)" stroke-opacity="1" stroke-miterlimit="10" d="M 225.265625 251.652344 L 225.265625 5.976562 "/>
</g>
<path fill-rule="nonzero" fill="rgb(97.254902%, 46.27451%, 42.745098%)" fill-opacity="0.501961" d="M 57.414062 201.414062 L 57.730469 200.039062 L 58.046875 198.765625 L 58.363281 197.597656 L 58.679688 196.542969 L 58.992188 195.644531 L 59.308594 194.886719 L 59.625 194.261719 L 59.941406 193.773438 L 60.257812 193.429688 L 60.574219 193.238281 L 60.886719 193.210938 L 61.203125 193.324219 L 61.519531 193.574219 L 61.835938 193.949219 L 62.152344 194.457031 L 62.46875 195.113281 L 62.785156 195.882812 L 63.097656 196.761719 L 63.414062 197.734375 L 63.730469 198.804688 L 64.046875 199.964844 L 64.363281 201.210938 L 64.679688 202.523438 L 64.992188 203.894531 L 65.308594 205.3125 L 65.625 206.773438 L 65.941406 208.273438 L 66.257812 209.796875 L 66.574219 211.335938 L 66.886719 212.878906 L 67.203125 214.425781 L 67.519531 215.964844 L 67.835938 217.484375 L 68.152344 218.980469 L 68.46875 220.449219 L 68.785156 221.886719 L 69.097656 223.28125 L 69.414062 224.617188 L 69.730469 225.90625 L 70.046875 227.140625 L 70.363281 228.320312 L 70.679688 229.441406 L 70.992188 230.488281 L 71.308594 231.46875 L 71.625 232.386719 L 71.941406 233.242188 L 72.257812 234.035156 L 72.574219 234.761719 L 72.890625 235.414062 L 73.203125 236.007812 L 73.519531 236.546875 L 73.835938 237.03125 L 74.152344 237.460938 L 74.46875 237.828125 L 74.785156 238.148438 L 75.097656 238.417969 L 75.414062 238.648438 L 75.730469 238.832031 L 76.046875 238.976562 L 76.363281 239.070312 L 76.679688 239.125 L 76.992188 239.140625 L 77.308594 239.121094 L 77.625 239.0625 L 77.941406 238.953125 L 78.257812 238.800781 L 78.574219 238.609375 L 78.890625 238.371094 L 79.203125 238.085938 L 79.519531 237.746094 L 79.835938 237.347656 L 80.152344 236.890625 L 80.46875 236.375 L 80.785156 235.796875 L 81.097656 235.15625 L 81.414062 234.433594 L 81.730469 233.632812 L 82.046875 232.753906 L 82.363281 231.800781 L 82.679688 230.769531 L 82.996094 229.644531 L 83.308594 228.421875 L 83.625 227.113281 L 83.941406 225.71875 L 84.257812 224.238281 L 84.574219 222.671875 L 84.890625 220.996094 L 85.203125 219.230469 L 85.519531 217.382812 L 85.835938 215.449219 L 86.152344 213.4375 L 86.46875 211.332031 L 86.785156 209.136719 L 87.097656 206.867188 L 87.414062 204.523438 L 87.730469 202.109375 L 88.046875 199.621094 L 88.363281 197.046875 L 88.679688 194.40625 L 88.996094 191.703125 L 89.308594 188.929688 L 89.625 186.09375 L 89.941406 183.1875 L 90.257812 180.203125 L 90.574219 177.15625 L 90.890625 174.042969 L 91.203125 170.859375 L 91.519531 167.609375 L 91.835938 164.269531 L 92.152344 160.851562 L 92.46875 157.359375 L 92.785156 153.789062 L 93.097656 150.136719 L 93.414062 146.394531 L 93.730469 142.550781 L 94.046875 138.625 L 94.363281 134.609375 L 94.679688 130.507812 L 94.996094 126.316406 L 95.308594 122.019531 L 95.625 117.640625 L 95.941406 113.1875 L 96.257812 108.660156 L 96.574219 104.066406 L 96.890625 99.402344 L 97.203125 94.695312 L 97.519531 89.953125 L 98.152344 80.429688 L 98.46875 75.675781 L 98.785156 70.964844 L 99.101562 66.3125 L 99.414062 61.738281 L 99.730469 57.261719 L 100.046875 52.902344 L 100.363281 48.714844 L 100.679688 44.714844 L 100.996094 40.910156 L 101.308594 37.320312 L 101.625 33.960938 L 101.941406 30.871094 L 102.257812 28.109375 L 102.574219 25.636719 L 102.890625 23.460938 L 103.203125 21.585938 L 103.519531 20.019531 L 103.835938 18.832031 L 104.152344 17.96875 L 104.46875 17.410156 L 104.785156 17.144531 L 105.101562 17.160156 L 105.414062 17.472656 L 105.730469 18.078125 L 106.046875 18.910156 L 106.363281 19.953125 L 106.679688 21.183594 L 106.996094 22.585938 L 107.308594 24.164062 L 107.625 25.863281 L 107.941406 27.660156 L 108.257812 29.542969 L 108.574219 31.484375 L 108.890625 33.484375 L 109.207031 35.519531 L 109.519531 37.574219 L 109.835938 39.640625 L 110.46875 43.789062 L 110.785156 45.859375 L 111.101562 47.925781 L 111.414062 49.988281 L 112.363281 56.164062 L 112.679688 58.226562 L 112.996094 60.292969 L 113.308594 62.371094 L 113.625 64.457031 L 113.941406 66.554688 L 114.257812 68.671875 L 114.574219 70.800781 L 114.890625 72.945312 L 115.207031 75.105469 L 115.519531 77.285156 L 115.835938 79.484375 L 116.152344 81.703125 L 116.46875 83.941406 L 116.785156 86.203125 L 117.101562 88.492188 L 117.414062 90.808594 L 117.730469 93.167969 L 118.046875 95.566406 L 118.363281 98.011719 L 118.679688 100.503906 L 118.996094 103.050781 L 119.3125 105.671875 L 119.625 108.371094 L 119.941406 111.140625 L 120.257812 113.992188 L 120.574219 116.921875 L 120.890625 119.941406 L 121.207031 123.0625 L 121.519531 126.269531 L 121.835938 129.550781 L 122.152344 132.910156 L 122.46875 136.335938 L 122.785156 139.828125 L 123.101562 143.367188 L 123.414062 146.941406 L 123.730469 150.527344 L 124.046875 154.117188 L 124.363281 157.695312 L 124.679688 161.226562 L 124.996094 164.699219 L 125.3125 168.101562 L 125.625 171.410156 L 125.941406 174.617188 L 126.257812 177.671875 L 126.574219 180.570312 L 126.890625 183.308594 L 127.207031 185.878906 L 127.519531 188.273438 L 127.835938 190.460938 L 128.152344 192.414062 L 128.46875 194.164062 L 128.785156 195.710938 L 129.101562 197.058594 L 129.414062 198.207031 L 129.730469 199.113281 L 130.046875 199.820312 L 130.363281 200.351562 L 130.679688 200.714844 L 130.996094 200.921875 L 131.3125 200.972656 L 131.625 200.871094 L 131.941406 200.667969 L 132.257812 200.371094 L 132.574219 200 L 132.890625 199.566406 L 133.207031 199.089844 L 133.519531 198.597656 L 133.835938 198.105469 L 134.152344 197.628906 L 134.46875 197.1875 L 134.785156 196.792969 L 135.101562 196.476562 L 135.417969 196.238281 L 135.730469 196.082031 L 136.046875 196.027344 L 136.363281 196.070312 L 136.679688 196.253906 L 136.996094 196.554688 L 137.3125 196.96875 L 137.625 197.5 L 137.941406 198.144531 L 138.257812 198.917969 L 138.574219 199.816406 L 138.890625 200.8125 L 139.207031 201.90625 L 139.519531 203.085938 L 139.835938 204.347656 L 140.152344 205.695312 L 140.46875 207.097656 L 140.785156 208.546875 L 141.101562 210.035156 L 141.417969 211.554688 L 141.730469 213.09375 L 142.046875 214.636719 L 142.363281 216.175781 L 142.679688 217.703125 L 142.996094 219.207031 L 143.3125 220.6875 L 143.625 222.121094 L 143.941406 223.511719 L 144.257812 224.855469 L 144.574219 226.144531 L 144.890625 227.378906 L 145.207031 228.546875 L 145.523438 229.644531 L 145.835938 230.679688 L 146.152344 231.652344 L 146.46875 232.5625 L 146.785156 233.40625 L 147.101562 234.171875 L 147.417969 234.882812 L 147.730469 235.53125 L 148.046875 236.125 L 148.363281 236.667969 L 148.679688 237.148438 L 148.996094 237.578125 L 149.3125 237.964844 L 149.625 238.3125 L 149.941406 238.621094 L 150.257812 238.890625 L 150.574219 239.125 L 150.890625 239.328125 L 151.207031 239.507812 L 151.523438 239.664062 L 151.835938 239.796875 L 152.152344 239.910156 L 152.46875 240.007812 L 152.785156 240.089844 L 153.101562 240.160156 L 153.417969 240.21875 L 153.730469 240.269531 L 154.046875 240.308594 L 154.363281 240.34375 L 154.679688 240.371094 L 154.996094 240.394531 L 155.3125 240.414062 L 155.628906 240.429688 L 155.941406 240.441406 L 156.890625 240.464844 L 157.523438 240.472656 L 157.835938 240.476562 L 158.152344 240.480469 L 158.785156 240.480469 L 159.101562 240.484375 L 161.3125 240.484375 L 161.628906 240.488281 L 218.785156 240.488281 L 57.414062 240.488281 Z M 57.414062 201.414062 "/>
<path fill="none" stroke-width="1.066978" stroke-linecap="butt" stroke-linejoin="round" stroke="rgb(0%, 0%, 0%)" stroke-opacity="1" stroke-miterlimit="10" d="M 57.414062 201.414062 L 57.730469 200.039062 L 58.046875 198.765625 L 58.363281 197.597656 L 58.679688 196.542969 L 58.992188 195.644531 L 59.308594 194.886719 L 59.625 194.261719 L 59.941406 193.773438 L 60.257812 193.429688 L 60.574219 193.238281 L 60.886719 193.210938 L 61.203125 193.324219 L 61.519531 193.574219 L 61.835938 193.949219 L 62.152344 194.457031 L 62.46875 195.113281 L 62.785156 195.882812 L 63.097656 196.761719 L 63.414062 197.734375 L 63.730469 198.804688 L 64.046875 199.964844 L 64.363281 201.210938 L 64.679688 202.523438 L 64.992188 203.894531 L 65.308594 205.3125 L 65.625 206.773438 L 65.941406 208.273438 L 66.257812 209.796875 L 66.574219 211.335938 L 66.886719 212.878906 L 67.203125 214.425781 L 67.519531 215.964844 L 67.835938 217.484375 L 68.152344 218.980469 L 68.46875 220.449219 L 68.785156 221.886719 L 69.097656 223.28125 L 69.414062 224.617188 L 69.730469 225.90625 L 70.046875 227.140625 L 70.363281 228.320312 L 70.679688 229.441406 L 70.992188 230.488281 L 71.308594 231.46875 L 71.625 232.386719 L 71.941406 233.242188 L 72.257812 234.035156 L 72.574219 234.761719 L 72.890625 235.414062 L 73.203125 236.007812 L 73.519531 236.546875 L 73.835938 237.03125 L 74.152344 237.460938 L 74.46875 237.828125 L 74.785156 238.148438 L 75.097656 238.417969 L 75.414062 238.648438 L 75.730469 238.832031 L 76.046875 238.976562 L 76.363281 239.070312 L 76.679688 239.125 L 76.992188 239.140625 L 77.308594 239.121094 L 77.625 239.0625 L 77.941406 238.953125 L 78.257812 238.800781 L 78.574219 238.609375 L 78.890625 238.371094 L 79.203125 238.085938 L 79.519531 237.746094 L 79.835938 237.347656 L 80.152344 236.890625 L 80.46875 236.375 L 80.785156 235.796875 L 81.097656 235.15625 L 81.414062 234.433594 L 81.730469 233.632812 L 82.046875 232.753906 L 82.363281 231.800781 L 82.679688 230.769531 L 82.996094 229.644531 L 83.308594 228.421875 L 83.625 227.113281 L 83.941406 225.71875 L 84.257812 224.238281 L 84.574219 222.671875 L 84.890625 220.996094 L 85.203125 219.230469 L 85.519531 217.382812 L 85.835938 215.449219 L 86.152344 213.4375 L 86.46875 211.332031 L 86.785156 209.136719 L 87.097656 206.867188 L 87.414062 204.523438 L 87.730469 202.109375 L 88.046875 199.621094 L 88.363281 197.046875 L 88.679688 194.40625 L 88.996094 191.703125 L 89.308594 188.929688 L 89.625 186.09375 L 89.941406 183.1875 L 90.257812 180.203125 L 90.574219 177.15625 L 90.890625 174.042969 L 91.203125 170.859375 L 91.519531 167.609375 L 91.835938 164.269531 L 92.152344 160.851562 L 92.46875 157.359375 L 92.785156 153.789062 L 93.097656 150.136719 L 93.414062 146.394531 L 93.730469 142.550781 L 94.046875 138.625 L 94.363281 134.609375 L 94.679688 130.507812 L 94.996094 126.316406 L 95.308594 122.019531 L 95.625 117.640625 L 95.941406 113.1875 L 96.257812 108.660156 L 96.574219 104.066406 L 96.890625 99.402344 L 97.203125 94.695312 L 97.519531 89.953125 L 98.152344 80.429688 L 98.46875 75.675781 L 98.785156 70.964844 L 99.101562 66.3125 L 99.414062 61.738281 L 99.730469 57.261719 L 100.046875 52.902344 L 100.363281 48.714844 L 100.679688 44.714844 L 100.996094 40.910156 L 101.308594 37.320312 L 101.625 33.960938 L 101.941406 30.871094 L 102.257812 28.109375 L 102.574219 25.636719 L 102.890625 23.460938 L 103.203125 21.585938 L 103.519531 20.019531 L 103.835938 18.832031 L 104.152344 17.96875 L 104.46875 17.410156 L 104.785156 17.144531 L 105.101562 17.160156 L 105.414062 17.472656 L 105.730469 18.078125 L 106.046875 18.910156 L 106.363281 19.953125 L 106.679688 21.183594 L 106.996094 22.585938 L 107.308594 24.164062 L 107.625 25.863281 L 107.941406 27.660156 L 108.257812 29.542969 L 108.574219 31.484375 L 108.890625 33.484375 L 109.207031 35.519531 L 109.519531 37.574219 L 109.835938 39.640625 L 110.46875 43.789062 L 110.785156 45.859375 L 111.101562 47.925781 L 111.414062 49.988281 L 112.363281 56.164062 L 112.679688 58.226562 L 112.996094 60.292969 L 113.308594 62.371094 L 113.625 64.457031 L 113.941406 66.554688 L 114.257812 68.671875 L 114.574219 70.800781 L 114.890625 72.945312 L 115.207031 75.105469 L 115.519531 77.285156 L 115.835938 79.484375 L 116.152344 81.703125 L 116.46875 83.941406 L 116.785156 86.203125 L 117.101562 88.492188 L 117.414062 90.808594 L 117.730469 93.167969 L 118.046875 95.566406 L 118.363281 98.011719 L 118.679688 100.503906 L 118.996094 103.050781 L 119.3125 105.671875 L 119.625 108.371094 L 119.941406 111.140625 L 120.257812 113.992188 L 120.574219 116.921875 L 120.890625 119.941406 L 121.207031 123.0625 L 121.519531 126.269531 L 121.835938 129.550781 L 122.152344 132.910156 L 122.46875 136.335938 L 122.785156 139.828125 L 123.101562 143.367188 L 123.414062 146.941406 L 123.730469 150.527344 L 124.046875 154.117188 L 124.363281 157.695312 L 124.679688 161.226562 L 124.996094 164.699219 L 125.3125 168.101562 L 125.625 171.410156 L 125.941406 174.617188 L 126.257812 177.671875 L 126.574219 180.570312 L 126.890625 183.308594 L 127.207031 185.878906 L 127.519531 188.273438 L 127.835938 190.460938 L 128.152344 192.414062 L 128.46875 194.164062 L 128.785156 195.710938 L 129.101562 197.058594 L 129.414062 198.207031 L 129.730469 199.113281 L 130.046875 199.820312 L 130.363281 200.351562 L 130.679688 200.714844 L 130.996094 200.921875 L 131.3125 200.972656 L 131.625 200.871094 L 131.941406 200.667969 L 132.257812 200.371094 L 132.574219 200 L 132.890625 199.566406 L 133.207031 199.089844 L 133.519531 198.597656 L 133.835938 198.105469 L 134.152344 197.628906 L 134.46875 197.1875 L 134.785156 196.792969 L 135.101562 196.476562 L 135.417969 196.238281 L 135.730469 196.082031 L 136.046875 196.027344 L 136.363281 196.070312 L 136.679688 196.253906 L 136.996094 196.554688 L 137.3125 196.96875 L 137.625 197.5 L 137.941406 198.144531 L 138.257812 198.917969 L 138.574219 199.816406 L 138.890625 200.8125 L 139.207031 201.90625 L 139.519531 203.085938 L 139.835938 204.347656 L 140.152344 205.695312 L 140.46875 207.097656 L 140.785156 208.546875 L 141.101562 210.035156 L 141.417969 211.554688 L 141.730469 213.09375 L 142.046875 214.636719 L 142.363281 216.175781 L 142.679688 217.703125 L 142.996094 219.207031 L 143.3125 220.6875 L 143.625 222.121094 L 143.941406 223.511719 L 144.257812 224.855469 L 144.574219 226.144531 L 144.890625 227.378906 L 145.207031 228.546875 L 145.523438 229.644531 L 145.835938 230.679688 L 146.152344 231.652344 L 146.46875 232.5625 L 146.785156 233.40625 L 147.101562 234.171875 L 147.417969 234.882812 L 147.730469 235.53125 L 148.046875 236.125 L 148.363281 236.667969 L 148.679688 237.148438 L 148.996094 237.578125 L 149.3125 237.964844 L 149.625 238.3125 L 149.941406 238.621094 L 150.257812 238.890625 L 150.574219 239.125 L 150.890625 239.328125 L 151.207031 239.507812 L 151.523438 239.664062 L 151.835938 239.796875 L 152.152344 239.910156 L 152.46875 240.007812 L 152.785156 240.089844 L 153.101562 240.160156 L 153.417969 240.21875 L 153.730469 240.269531 L 154.046875 240.308594 L 154.363281 240.34375 L 154.679688 240.371094 L 154.996094 240.394531 L 155.3125 240.414062 L 155.628906 240.429688 L 155.941406 240.441406 L 156.890625 240.464844 L 157.523438 240.472656 L 157.835938 240.476562 L 158.152344 240.480469 L 158.785156 240.480469 L 159.101562 240.484375 L 161.3125 240.484375 L 161.628906 240.488281 L 218.785156 240.488281 "/>
<path fill-rule="nonzero" fill="rgb(0%, 74.901961%, 76.862745%)" fill-opacity="0.501961" d="M 57.414062 234.882812 L 57.730469 234.726562 L 58.679688 234.246094 L 58.992188 234.089844 L 59.308594 233.929688 L 60.257812 233.460938 L 60.574219 233.308594 L 60.886719 233.15625 L 61.519531 232.859375 L 62.152344 232.570312 L 62.785156 232.296875 L 63.097656 232.164062 L 63.414062 232.03125 L 63.730469 231.90625 L 64.046875 231.785156 L 64.363281 231.667969 L 64.679688 231.554688 L 64.992188 231.449219 L 65.308594 231.34375 L 65.625 231.246094 L 65.941406 231.152344 L 66.257812 231.0625 L 66.574219 230.980469 L 66.886719 230.902344 L 67.203125 230.832031 L 67.519531 230.765625 L 67.835938 230.707031 L 68.152344 230.652344 L 68.46875 230.605469 L 68.785156 230.5625 L 69.097656 230.527344 L 69.414062 230.496094 L 69.730469 230.472656 L 70.046875 230.457031 L 70.363281 230.445312 L 70.679688 230.4375 L 70.992188 230.4375 L 71.308594 230.445312 L 71.625 230.457031 L 71.941406 230.476562 L 72.257812 230.5 L 72.574219 230.527344 L 72.890625 230.5625 L 73.203125 230.605469 L 73.519531 230.648438 L 73.835938 230.699219 L 74.152344 230.753906 L 74.46875 230.8125 L 74.785156 230.875 L 75.097656 230.945312 L 75.414062 231.015625 L 75.730469 231.089844 L 76.046875 231.167969 L 76.363281 231.25 L 76.679688 231.335938 L 76.992188 231.425781 L 77.308594 231.515625 L 77.941406 231.703125 L 78.574219 231.898438 L 78.890625 232 L 79.203125 232.097656 L 79.519531 232.199219 L 79.835938 232.304688 L 80.785156 232.609375 L 81.097656 232.710938 L 81.730469 232.914062 L 82.046875 233.011719 L 82.363281 233.113281 L 82.679688 233.207031 L 82.996094 233.304688 L 83.308594 233.394531 L 83.625 233.488281 L 84.574219 233.746094 L 84.890625 233.828125 L 85.203125 233.902344 L 85.519531 233.980469 L 85.835938 234.050781 L 86.46875 234.183594 L 86.785156 234.242188 L 87.097656 234.300781 L 87.414062 234.355469 L 88.046875 234.449219 L 88.363281 234.488281 L 88.679688 234.523438 L 88.996094 234.554688 L 89.308594 234.582031 L 89.941406 234.621094 L 90.257812 234.632812 L 90.890625 234.640625 L 91.203125 234.636719 L 91.835938 234.613281 L 92.152344 234.589844 L 92.46875 234.5625 L 92.785156 234.53125 L 93.097656 234.492188 L 93.414062 234.445312 L 93.730469 234.394531 L 94.046875 234.339844 L 94.363281 234.273438 L 94.679688 234.203125 L 94.996094 234.125 L 95.308594 234.039062 L 95.625 233.949219 L 95.941406 233.851562 L 96.257812 233.746094 L 96.574219 233.632812 L 96.890625 233.511719 L 97.203125 233.386719 L 97.519531 233.253906 L 97.835938 233.109375 L 98.152344 232.960938 L 98.46875 232.804688 L 98.785156 232.636719 L 99.101562 232.464844 L 99.414062 232.285156 L 99.730469 232.097656 L 100.046875 231.902344 L 100.363281 231.699219 L 100.679688 231.488281 L 100.996094 231.269531 L 101.308594 231.046875 L 101.625 230.8125 L 101.941406 230.570312 L 102.257812 230.324219 L 102.574219 230.070312 L 102.890625 229.808594 L 103.203125 229.542969 L 103.519531 229.269531 L 103.835938 228.988281 L 104.152344 228.703125 L 104.46875 228.414062 L 104.785156 228.117188 L 105.101562 227.816406 L 105.414062 227.507812 L 105.730469 227.199219 L 106.363281 226.566406 L 106.996094 225.917969 L 107.308594 225.589844 L 107.625 225.261719 L 108.890625 223.933594 L 109.207031 223.597656 L 109.519531 223.265625 L 109.835938 222.933594 L 110.46875 222.277344 L 111.101562 221.628906 L 111.414062 221.308594 L 112.046875 220.683594 L 112.363281 220.378906 L 112.679688 220.078125 L 112.996094 219.785156 L 113.308594 219.496094 L 113.625 219.214844 L 113.941406 218.941406 L 114.257812 218.671875 L 114.574219 218.414062 L 114.890625 218.160156 L 115.207031 217.917969 L 115.519531 217.683594 L 115.835938 217.457031 L 116.152344 217.238281 L 116.46875 217.03125 L 116.785156 216.832031 L 117.101562 216.644531 L 117.414062 216.464844 L 117.730469 216.292969 L 118.046875 216.132812 L 118.363281 215.980469 L 118.679688 215.839844 L 118.996094 215.707031 L 119.3125 215.585938 L 119.625 215.472656 L 119.941406 215.371094 L 120.257812 215.273438 L 120.574219 215.1875 L 120.890625 215.109375 L 121.207031 215.039062 L 121.519531 214.976562 L 121.835938 214.921875 L 122.152344 214.875 L 122.46875 214.832031 L 122.785156 214.796875 L 123.101562 214.765625 L 123.414062 214.738281 L 123.730469 214.71875 L 124.363281 214.6875 L 124.679688 214.675781 L 125.3125 214.660156 L 125.625 214.652344 L 125.941406 214.648438 L 126.257812 214.640625 L 126.574219 214.628906 L 126.890625 214.621094 L 127.207031 214.609375 L 127.519531 214.589844 L 127.835938 214.570312 L 128.152344 214.546875 L 128.46875 214.515625 L 128.785156 214.480469 L 129.101562 214.4375 L 129.414062 214.386719 L 129.730469 214.328125 L 130.046875 214.261719 L 130.363281 214.1875 L 130.679688 214.105469 L 130.996094 214.007812 L 131.3125 213.902344 L 131.625 213.785156 L 131.941406 213.65625 L 132.257812 213.515625 L 132.574219 213.367188 L 132.890625 213.195312 L 133.207031 213.019531 L 133.519531 212.828125 L 133.835938 212.621094 L 134.152344 212.398438 L 134.46875 212.167969 L 134.785156 211.917969 L 135.101562 211.65625 L 135.417969 211.382812 L 135.730469 211.085938 L 136.046875 210.785156 L 136.363281 210.464844 L 136.679688 210.128906 L 136.996094 209.78125 L 137.3125 209.417969 L 137.625 209.039062 L 137.941406 208.652344 L 138.257812 208.246094 L 138.574219 207.828125 L 138.890625 207.402344 L 139.207031 206.957031 L 139.519531 206.503906 L 139.835938 206.039062 L 140.152344 205.558594 L 140.46875 205.070312 L 140.785156 204.574219 L 141.101562 204.0625 L 141.417969 203.542969 L 141.730469 203.015625 L 142.046875 202.476562 L 142.363281 201.933594 L 142.679688 201.382812 L 142.996094 200.820312 L 143.3125 200.253906 L 143.625 199.679688 L 143.941406 199.101562 L 144.257812 198.519531 L 144.574219 197.929688 L 145.207031 196.742188 L 145.523438 196.140625 L 145.835938 195.539062 L 146.46875 194.328125 L 146.785156 193.71875 L 147.101562 193.105469 L 147.417969 192.496094 L 147.730469 191.882812 L 148.046875 191.269531 L 148.363281 190.652344 L 149.3125 188.8125 L 149.625 188.195312 L 151.207031 185.128906 L 151.523438 184.511719 L 151.835938 183.898438 L 152.46875 182.671875 L 153.417969 180.820312 L 153.730469 180.203125 L 154.363281 178.960938 L 154.679688 178.335938 L 155.3125 177.078125 L 155.628906 176.445312 L 155.941406 175.808594 L 156.257812 175.171875 L 156.890625 173.882812 L 157.207031 173.230469 L 157.523438 172.574219 L 157.835938 171.914062 L 158.152344 171.25 L 158.46875 170.578125 L 158.785156 169.902344 L 159.101562 169.222656 L 159.417969 168.539062 L 159.730469 167.847656 L 160.046875 167.15625 L 160.363281 166.457031 L 160.996094 165.042969 L 161.3125 164.328125 L 161.628906 163.609375 L 161.941406 162.890625 L 162.257812 162.167969 L 162.574219 161.441406 L 163.207031 159.980469 L 163.523438 159.246094 L 163.835938 158.515625 L 164.152344 157.78125 L 165.101562 155.589844 L 165.417969 154.867188 L 165.730469 154.144531 L 166.046875 153.429688 L 166.363281 152.71875 L 166.679688 152.011719 L 166.996094 151.316406 L 167.3125 150.628906 L 167.628906 149.949219 L 167.941406 149.28125 L 168.257812 148.625 L 168.574219 147.980469 L 168.890625 147.351562 L 169.207031 146.730469 L 169.523438 146.128906 L 169.835938 145.546875 L 170.152344 144.976562 L 170.46875 144.425781 L 170.785156 143.894531 L 171.101562 143.378906 L 171.417969 142.886719 L 171.734375 142.417969 L 172.046875 141.964844 L 172.363281 141.539062 L 172.679688 141.136719 L 172.996094 140.753906 L 173.3125 140.398438 L 173.628906 140.066406 L 173.941406 139.753906 L 174.257812 139.476562 L 174.574219 139.21875 L 174.890625 138.980469 L 175.207031 138.78125 L 175.523438 138.597656 L 175.835938 138.4375 L 176.152344 138.316406 L 176.46875 138.210938 L 176.785156 138.125 L 177.101562 138.078125 L 177.417969 138.050781 L 177.734375 138.039062 L 178.046875 138.066406 L 178.363281 138.109375 L 178.679688 138.171875 L 178.996094 138.269531 L 179.3125 138.378906 L 179.628906 138.511719 L 179.941406 138.671875 L 180.257812 138.84375 L 180.574219 139.039062 L 180.890625 139.257812 L 181.207031 139.488281 L 181.523438 139.742188 L 181.839844 140.011719 L 182.152344 140.296875 L 182.46875 140.597656 L 182.785156 140.914062 L 183.101562 141.242188 L 183.417969 141.585938 L 183.734375 141.945312 L 184.046875 142.3125 L 184.363281 142.695312 L 184.679688 143.085938 L 184.996094 143.484375 L 185.3125 143.898438 L 185.628906 144.320312 L 185.941406 144.746094 L 186.257812 145.183594 L 186.574219 145.628906 L 186.890625 146.078125 L 187.207031 146.535156 L 187.523438 147 L 187.839844 147.46875 L 188.152344 147.945312 L 188.46875 148.421875 L 188.785156 148.90625 L 189.101562 149.394531 L 189.417969 149.886719 L 189.734375 150.382812 L 190.046875 150.882812 L 190.363281 151.386719 L 190.996094 152.402344 L 191.3125 152.914062 L 191.628906 153.429688 L 191.945312 153.949219 L 192.257812 154.472656 L 192.574219 154.996094 L 192.890625 155.523438 L 193.523438 156.585938 L 193.839844 157.121094 L 194.152344 157.660156 L 194.785156 158.746094 L 195.101562 159.292969 L 195.417969 159.84375 L 195.734375 160.398438 L 196.046875 160.953125 L 196.363281 161.511719 L 196.679688 162.074219 L 196.996094 162.640625 L 197.3125 163.210938 L 197.945312 164.359375 L 198.257812 164.941406 L 198.574219 165.523438 L 198.890625 166.109375 L 199.523438 167.296875 L 199.839844 167.894531 L 200.152344 168.496094 L 200.46875 169.101562 L 200.785156 169.710938 L 201.417969 170.945312 L 201.734375 171.566406 L 202.046875 172.191406 L 202.363281 172.820312 L 202.679688 173.453125 L 203.3125 174.726562 L 203.628906 175.371094 L 203.945312 176.019531 L 204.257812 176.671875 L 204.574219 177.328125 L 205.207031 178.648438 L 205.523438 179.316406 L 205.839844 179.988281 L 206.152344 180.660156 L 206.785156 182.019531 L 207.417969 183.394531 L 207.734375 184.085938 L 208.050781 184.78125 L 208.363281 185.480469 L 208.996094 186.886719 L 209.628906 188.308594 L 209.945312 189.023438 L 210.257812 189.742188 L 210.890625 191.1875 L 211.207031 191.914062 L 211.839844 193.375 L 212.152344 194.109375 L 212.785156 195.585938 L 213.734375 197.8125 L 214.050781 198.558594 L 214.363281 199.308594 L 214.679688 200.054688 L 214.996094 200.804688 L 215.3125 201.550781 L 215.945312 203.050781 L 216.257812 203.800781 L 216.574219 204.550781 L 217.523438 206.789062 L 218.15625 208.273438 L 218.46875 209.011719 L 218.785156 209.746094 L 218.785156 240.488281 L 57.414062 240.488281 Z M 57.414062 234.882812 "/>
<path fill="none" stroke-width="1.066978" stroke-linecap="butt" stroke-linejoin="round" stroke="rgb(0%, 0%, 0%)" stroke-opacity="1" stroke-miterlimit="10" d="M 57.414062 234.882812 L 57.730469 234.726562 L 58.679688 234.246094 L 58.992188 234.089844 L 59.308594 233.929688 L 60.257812 233.460938 L 60.574219 233.308594 L 60.886719 233.15625 L 61.519531 232.859375 L 62.152344 232.570312 L 62.785156 232.296875 L 63.097656 232.164062 L 63.414062 232.03125 L 63.730469 231.90625 L 64.046875 231.785156 L 64.363281 231.667969 L 64.679688 231.554688 L 64.992188 231.449219 L 65.308594 231.34375 L 65.625 231.246094 L 65.941406 231.152344 L 66.257812 231.0625 L 66.574219 230.980469 L 66.886719 230.902344 L 67.203125 230.832031 L 67.519531 230.765625 L 67.835938 230.707031 L 68.152344 230.652344 L 68.46875 230.605469 L 68.785156 230.5625 L 69.097656 230.527344 L 69.414062 230.496094 L 69.730469 230.472656 L 70.046875 230.457031 L 70.363281 230.445312 L 70.679688 230.4375 L 70.992188 230.4375 L 71.308594 230.445312 L 71.625 230.457031 L 71.941406 230.476562 L 72.257812 230.5 L 72.574219 230.527344 L 72.890625 230.5625 L 73.203125 230.605469 L 73.519531 230.648438 L 73.835938 230.699219 L 74.152344 230.753906 L 74.46875 230.8125 L 74.785156 230.875 L 75.097656 230.945312 L 75.414062 231.015625 L 75.730469 231.089844 L 76.046875 231.167969 L 76.363281 231.25 L 76.679688 231.335938 L 76.992188 231.425781 L 77.308594 231.515625 L 77.941406 231.703125 L 78.574219 231.898438 L 78.890625 232 L 79.203125 232.097656 L 79.519531 232.199219 L 79.835938 232.304688 L 80.785156 232.609375 L 81.097656 232.710938 L 81.730469 232.914062 L 82.046875 233.011719 L 82.363281 233.113281 L 82.679688 233.207031 L 82.996094 233.304688 L 83.308594 233.394531 L 83.625 233.488281 L 84.574219 233.746094 L 84.890625 233.828125 L 85.203125 233.902344 L 85.519531 233.980469 L 85.835938 234.050781 L 86.46875 234.183594 L 86.785156 234.242188 L 87.097656 234.300781 L 87.414062 234.355469 L 88.046875 234.449219 L 88.363281 234.488281 L 88.679688 234.523438 L 88.996094 234.554688 L 89.308594 234.582031 L 89.941406 234.621094 L 90.257812 234.632812 L 90.890625 234.640625 L 91.203125 234.636719 L 91.835938 234.613281 L 92.152344 234.589844 L 92.46875 234.5625 L 92.785156 234.53125 L 93.097656 234.492188 L 93.414062 234.445312 L 93.730469 234.394531 L 94.046875 234.339844 L 94.363281 234.273438 L 94.679688 234.203125 L 94.996094 234.125 L 95.308594 234.039062 L 95.625 233.949219 L 95.941406 233.851562 L 96.257812 233.746094 L 96.574219 233.632812 L 96.890625 233.511719 L 97.203125 233.386719 L 97.519531 233.253906 L 97.835938 233.109375 L 98.152344 232.960938 L 98.46875 232.804688 L 98.785156 232.636719 L 99.101562 232.464844 L 99.414062 232.285156 L 99.730469 232.097656 L 100.046875 231.902344 L 100.363281 231.699219 L 100.679688 231.488281 L 100.996094 231.269531 L 101.308594 231.046875 L 101.625 230.8125 L 101.941406 230.570312 L 102.257812 230.324219 L 102.574219 230.070312 L 102.890625 229.808594 L 103.203125 229.542969 L 103.519531 229.269531 L 103.835938 228.988281 L 104.152344 228.703125 L 104.46875 228.414062 L 104.785156 228.117188 L 105.101562 227.816406 L 105.414062 227.507812 L 105.730469 227.199219 L 106.363281 226.566406 L 106.996094 225.917969 L 107.308594 225.589844 L 107.625 225.261719 L 108.890625 223.933594 L 109.207031 223.597656 L 109.519531 223.265625 L 109.835938 222.933594 L 110.46875 222.277344 L 111.101562 221.628906 L 111.414062 221.308594 L 112.046875 220.683594 L 112.363281 220.378906 L 112.679688 220.078125 L 112.996094 219.785156 L 113.308594 219.496094 L 113.625 219.214844 L 113.941406 218.941406 L 114.257812 218.671875 L 114.574219 218.414062 L 114.890625 218.160156 L 115.207031 217.917969 L 115.519531 217.683594 L 115.835938 217.457031 L 116.152344 217.238281 L 116.46875 217.03125 L 116.785156 216.832031 L 117.101562 216.644531 L 117.414062 216.464844 L 117.730469 216.292969 L 118.046875 216.132812 L 118.363281 215.980469 L 118.679688 215.839844 L 118.996094 215.707031 L 119.3125 215.585938 L 119.625 215.472656 L 119.941406 215.371094 L 120.257812 215.273438 L 120.574219 215.1875 L 120.890625 215.109375 L 121.207031 215.039062 L 121.519531 214.976562 L 121.835938 214.921875 L 122.152344 214.875 L 122.46875 214.832031 L 122.785156 214.796875 L 123.101562 214.765625 L 123.414062 214.738281 L 123.730469 214.71875 L 124.363281 214.6875 L 124.679688 214.675781 L 125.3125 214.660156 L 125.625 214.652344 L 125.941406 214.648438 L 126.257812 214.640625 L 126.574219 214.628906 L 126.890625 214.621094 L 127.207031 214.609375 L 127.519531 214.589844 L 127.835938 214.570312 L 128.152344 214.546875 L 128.46875 214.515625 L 128.785156 214.480469 L 129.101562 214.4375 L 129.414062 214.386719 L 129.730469 214.328125 L 130.046875 214.261719 L 130.363281 214.1875 L 130.679688 214.105469 L 130.996094 214.007812 L 131.3125 213.902344 L 131.625 213.785156 L 131.941406 213.65625 L 132.257812 213.515625 L 132.574219 213.367188 L 132.890625 213.195312 L 133.207031 213.019531 L 133.519531 212.828125 L 133.835938 212.621094 L 134.152344 212.398438 L 134.46875 212.167969 L 134.785156 211.917969 L 135.101562 211.65625 L 135.417969 211.382812 L 135.730469 211.085938 L 136.046875 210.785156 L 136.363281 210.464844 L 136.679688 210.128906 L 136.996094 209.78125 L 137.3125 209.417969 L 137.625 209.039062 L 137.941406 208.652344 L 138.257812 208.246094 L 138.574219 207.828125 L 138.890625 207.402344 L 139.207031 206.957031 L 139.519531 206.503906 L 139.835938 206.039062 L 140.152344 205.558594 L 140.46875 205.070312 L 140.785156 204.574219 L 141.101562 204.0625 L 141.417969 203.542969 L 141.730469 203.015625 L 142.046875 202.476562 L 142.363281 201.933594 L 142.679688 201.382812 L 142.996094 200.820312 L 143.3125 200.253906 L 143.625 199.679688 L 143.941406 199.101562 L 144.257812 198.519531 L 144.574219 197.929688 L 145.207031 196.742188 L 145.523438 196.140625 L 145.835938 195.539062 L 146.46875 194.328125 L 146.785156 193.71875 L 147.101562 193.105469 L 147.417969 192.496094 L 147.730469 191.882812 L 148.046875 191.269531 L 148.363281 190.652344 L 149.3125 188.8125 L 149.625 188.195312 L 151.207031 185.128906 L 151.523438 184.511719 L 151.835938 183.898438 L 152.46875 182.671875 L 153.417969 180.820312 L 153.730469 180.203125 L 154.363281 178.960938 L 154.679688 178.335938 L 155.3125 177.078125 L 155.628906 176.445312 L 155.941406 175.808594 L 156.257812 175.171875 L 156.890625 173.882812 L 157.207031 173.230469 L 157.523438 172.574219 L 157.835938 171.914062 L 158.152344 171.25 L 158.46875 170.578125 L 158.785156 169.902344 L 159.101562 169.222656 L 159.417969 168.539062 L 159.730469 167.847656 L 160.046875 167.15625 L 160.363281 166.457031 L 160.996094 165.042969 L 161.3125 164.328125 L 161.628906 163.609375 L 161.941406 162.890625 L 162.257812 162.167969 L 162.574219 161.441406 L 163.207031 159.980469 L 163.523438 159.246094 L 163.835938 158.515625 L 164.152344 157.78125 L 165.101562 155.589844 L 165.417969 154.867188 L 165.730469 154.144531 L 166.046875 153.429688 L 166.363281 152.71875 L 166.679688 152.011719 L 166.996094 151.316406 L 167.3125 150.628906 L 167.628906 149.949219 L 167.941406 149.28125 L 168.257812 148.625 L 168.574219 147.980469 L 168.890625 147.351562 L 169.207031 146.730469 L 169.523438 146.128906 L 169.835938 145.546875 L 170.152344 144.976562 L 170.46875 144.425781 L 170.785156 143.894531 L 171.101562 143.378906 L 171.417969 142.886719 L 171.734375 142.417969 L 172.046875 141.964844 L 172.363281 141.539062 L 172.679688 141.136719 L 172.996094 140.753906 L 173.3125 140.398438 L 173.628906 140.066406 L 173.941406 139.753906 L 174.257812 139.476562 L 174.574219 139.21875 L 174.890625 138.980469 L 175.207031 138.78125 L 175.523438 138.597656 L 175.835938 138.4375 L 176.152344 138.316406 L 176.46875 138.210938 L 176.785156 138.125 L 177.101562 138.078125 L 177.417969 138.050781 L 177.734375 138.039062 L 178.046875 138.066406 L 178.363281 138.109375 L 178.679688 138.171875 L 178.996094 138.269531 L 179.3125 138.378906 L 179.628906 138.511719 L 179.941406 138.671875 L 180.257812 138.84375 L 180.574219 139.039062 L 180.890625 139.257812 L 181.207031 139.488281 L 181.523438 139.742188 L 181.839844 140.011719 L 182.152344 140.296875 L 182.46875 140.597656 L 182.785156 140.914062 L 183.101562 141.242188 L 183.417969 141.585938 L 183.734375 141.945312 L 184.046875 142.3125 L 184.363281 142.695312 L 184.679688 143.085938 L 184.996094 143.484375 L 185.3125 143.898438 L 185.628906 144.320312 L 185.941406 144.746094 L 186.257812 145.183594 L 186.574219 145.628906 L 186.890625 146.078125 L 187.207031 146.535156 L 187.523438 147 L 187.839844 147.46875 L 188.152344 147.945312 L 188.46875 148.421875 L 188.785156 148.90625 L 189.101562 149.394531 L 189.417969 149.886719 L 189.734375 150.382812 L 190.046875 150.882812 L 190.363281 151.386719 L 190.996094 152.402344 L 191.3125 152.914062 L 191.628906 153.429688 L 191.945312 153.949219 L 192.257812 154.472656 L 192.574219 154.996094 L 192.890625 155.523438 L 193.523438 156.585938 L 193.839844 157.121094 L 194.152344 157.660156 L 194.785156 158.746094 L 195.101562 159.292969 L 195.417969 159.84375 L 195.734375 160.398438 L 196.046875 160.953125 L 196.363281 161.511719 L 196.679688 162.074219 L 196.996094 162.640625 L 197.3125 163.210938 L 197.945312 164.359375 L 198.257812 164.941406 L 198.574219 165.523438 L 198.890625 166.109375 L 199.523438 167.296875 L 199.839844 167.894531 L 200.152344 168.496094 L 200.46875 169.101562 L 200.785156 169.710938 L 201.417969 170.945312 L 201.734375 171.566406 L 202.046875 172.191406 L 202.363281 172.820312 L 202.679688 173.453125 L 203.3125 174.726562 L 203.628906 175.371094 L 203.945312 176.019531 L 204.257812 176.671875 L 204.574219 177.328125 L 205.207031 178.648438 L 205.523438 179.316406 L 205.839844 179.988281 L 206.152344 180.660156 L 206.785156 182.019531 L 207.417969 183.394531 L 207.734375 184.085938 L 208.050781 184.78125 L 208.363281 185.480469 L 208.996094 186.886719 L 209.628906 188.308594 L 209.945312 189.023438 L 210.257812 189.742188 L 210.890625 191.1875 L 211.207031 191.914062 L 211.839844 193.375 L 212.152344 194.109375 L 212.785156 195.585938 L 213.734375 197.8125 L 214.050781 198.558594 L 214.363281 199.308594 L 214.679688 200.054688 L 214.996094 200.804688 L 215.3125 201.550781 L 215.945312 203.050781 L 216.257812 203.800781 L 216.574219 204.550781 L 217.523438 206.789062 L 218.15625 208.273438 L 218.46875 209.011719 L 218.785156 209.746094 "/>
<g fill="rgb(30.196078%, 30.196078%, 30.196078%)" fill-opacity="1">
<use xlink:href="#glyph-0-1" x="20.964844" y="243.379883"/>
<use xlink:href="#glyph-0-2" x="25.964844" y="243.379883"/>
<use xlink:href="#glyph-0-1" x="28.964844" y="243.379883"/>
<use xlink:href="#glyph-0-1" x="33.964844" y="243.379883"/>
<use xlink:href="#glyph-0-1" x="38.964844" y="243.379883"/>
</g>
<g fill="rgb(30.196078%, 30.196078%, 30.196078%)" fill-opacity="1">
<use xlink:href="#glyph-0-1" x="20.964844" y="187.71582"/>
<use xlink:href="#glyph-0-2" x="25.964844" y="187.71582"/>
<use xlink:href="#glyph-0-1" x="28.964844" y="187.71582"/>
<use xlink:href="#glyph-0-1" x="33.964844" y="187.71582"/>
<use xlink:href="#glyph-0-3" x="38.964844" y="187.71582"/>
</g>
<g fill="rgb(30.196078%, 30.196078%, 30.196078%)" fill-opacity="1">
<use xlink:href="#glyph-0-1" x="20.964844" y="132.047852"/>
<use xlink:href="#glyph-0-2" x="25.964844" y="132.047852"/>
<use xlink:href="#glyph-0-1" x="28.964844" y="132.047852"/>
<use xlink:href="#glyph-0-4" x="33.964844" y="132.047852"/>
<use xlink:href="#glyph-0-1" x="38.964844" y="132.047852"/>
</g>
<g fill="rgb(30.196078%, 30.196078%, 30.196078%)" fill-opacity="1">
<use xlink:href="#glyph-0-1" x="20.964844" y="76.383789"/>
<use xlink:href="#glyph-0-2" x="25.964844" y="76.383789"/>
<use xlink:href="#glyph-0-1" x="28.964844" y="76.383789"/>
<use xlink:href="#glyph-0-4" x="33.964844" y="76.383789"/>
<use xlink:href="#glyph-0-3" x="38.964844" y="76.383789"/>
</g>
<g fill="rgb(30.196078%, 30.196078%, 30.196078%)" fill-opacity="1">
<use xlink:href="#glyph-0-1" x="20.964844" y="20.719727"/>
<use xlink:href="#glyph-0-2" x="25.964844" y="20.719727"/>
<use xlink:href="#glyph-0-1" x="28.964844" y="20.719727"/>
<use xlink:href="#glyph-0-5" x="33.964844" y="20.719727"/>
<use xlink:href="#glyph-0-1" x="38.964844" y="20.719727"/>
</g>
<g fill="rgb(30.196078%, 30.196078%, 30.196078%)" fill-opacity="1">
<use xlink:href="#glyph-0-5" x="55.746094" y="263.426758"/>
<use xlink:href="#glyph-0-1" x="60.746094" y="263.426758"/>
<use xlink:href="#glyph-0-1" x="65.746094" y="263.426758"/>
</g>
<g fill="rgb(30.196078%, 30.196078%, 30.196078%)" fill-opacity="1">
<use xlink:href="#glyph-0-5" x="88.152344" y="263.426758"/>
<use xlink:href="#glyph-0-3" x="93.152344" y="263.426758"/>
<use xlink:href="#glyph-0-1" x="98.152344" y="263.426758"/>
</g>
<g fill="rgb(30.196078%, 30.196078%, 30.196078%)" fill-opacity="1">
<use xlink:href="#glyph-0-6" x="120.554688" y="263.426758"/>
<use xlink:href="#glyph-0-1" x="125.554688" y="263.426758"/>
<use xlink:href="#glyph-0-1" x="130.554688" y="263.426758"/>
</g>
<g fill="rgb(30.196078%, 30.196078%, 30.196078%)" fill-opacity="1">
<use xlink:href="#glyph-0-6" x="152.960938" y="263.426758"/>
<use xlink:href="#glyph-0-3" x="157.960938" y="263.426758"/>
<use xlink:href="#glyph-0-1" x="162.960938" y="263.426758"/>
</g>
<g fill="rgb(30.196078%, 30.196078%, 30.196078%)" fill-opacity="1">
<use xlink:href="#glyph-0-7" x="185.363281" y="263.426758"/>
<use xlink:href="#glyph-0-1" x="190.363281" y="263.426758"/>
<use xlink:href="#glyph-0-1" x="195.363281" y="263.426758"/>
</g>
<g fill="rgb(30.196078%, 30.196078%, 30.196078%)" fill-opacity="1">
<use xlink:href="#glyph-0-7" x="217.765625" y="263.426758"/>
<use xlink:href="#glyph-0-3" x="222.765625" y="263.426758"/>
<use xlink:href="#glyph-0-1" x="227.765625" y="263.426758"/>
</g>
<g fill="rgb(0%, 0%, 0%)" fill-opacity="1">
<use xlink:href="#glyph-1-1" x="107.601562" y="278.263672"/>
<use xlink:href="#glyph-1-2" x="110.601562" y="278.263672"/>
<use xlink:href="#glyph-1-3" x="117.601562" y="278.263672"/>
<use xlink:href="#glyph-1-4" x="124.601562" y="278.263672"/>
<use xlink:href="#glyph-1-5" x="131.601562" y="278.263672"/>
<use xlink:href="#glyph-1-6" x="134.601562" y="278.263672"/>
<use xlink:href="#glyph-1-7" x="141.601562" y="278.263672"/>
<use xlink:href="#glyph-1-8" x="148.601562" y="278.263672"/>
<use xlink:href="#glyph-1-8" x="158.601562" y="278.263672"/>
</g>
<g fill="rgb(0%, 0%, 0%)" fill-opacity="1">
<use xlink:href="#glyph-2-1" x="14.216797" y="148.316406"/>
<use xlink:href="#glyph-2-2" x="14.216797" y="141.316406"/>
<use xlink:href="#glyph-2-3" x="14.216797" y="134.316406"/>
<use xlink:href="#glyph-2-4" x="14.216797" y="127.316406"/>
<use xlink:href="#glyph-2-5" x="14.216797" y="121.316406"/>
<use xlink:href="#glyph-2-6" x="14.216797" y="118.316406"/>
<use xlink:href="#glyph-2-7" x="14.216797" y="115.316406"/>
</g>
<g fill="rgb(0%, 0%, 0%)" fill-opacity="1">
<use xlink:href="#glyph-1-1" x="244.789062" y="112.287109"/>
<use xlink:href="#glyph-1-9" x="247.789062" y="112.287109"/>
<use xlink:href="#glyph-1-10" x="254.789062" y="112.287109"/>
<use xlink:href="#glyph-1-2" x="260.789062" y="112.287109"/>
</g>
<path fill-rule="nonzero" fill="rgb(97.254902%, 46.27451%, 42.745098%)" fill-opacity="0.501961" stroke-width="1.066978" stroke-linecap="butt" stroke-linejoin="miter" stroke="rgb(0%, 0%, 0%)" stroke-opacity="1" stroke-miterlimit="10" d="M 245.496094 137.097656 L 261.359375 137.097656 L 261.359375 121.234375 L 245.496094 121.234375 Z M 245.496094 137.097656 "/>
<path fill-rule="nonzero" fill="rgb(0%, 74.901961%, 76.862745%)" fill-opacity="0.501961" stroke-width="1.066978" stroke-linecap="butt" stroke-linejoin="miter" stroke="rgb(0%, 0%, 0%)" stroke-opacity="1" stroke-miterlimit="10" d="M 245.496094 154.375 L 261.359375 154.375 L 261.359375 138.511719 L 245.496094 138.511719 Z M 245.496094 154.375 "/>
<g fill="rgb(0%, 0%, 0%)" fill-opacity="1">
<use xlink:href="#glyph-0-8" x="268.042969" y="132.055664"/>
<use xlink:href="#glyph-0-6" x="271.042969" y="132.055664"/>
</g>
<g fill="rgb(0%, 0%, 0%)" fill-opacity="1">
<use xlink:href="#glyph-0-8" x="268.042969" y="149.336914"/>
<use xlink:href="#glyph-0-9" x="271.042969" y="149.336914"/>
</g>
</svg>
